<svg width="634" height="587" viewBox="0 0 634 587" fill="none" xmlns="http://www.w3.org/2000/svg">
<g clip-path="url(#clip0_8870_10133)">
<rect width="634" height="587" rx="16" fill="url(#paint0_linear_8870_10133)"/>
<rect x="39.5" y="32.5" width="640" height="510" rx="15.5" fill="white" fill-opacity="0.1"/>
<rect x="39.5" y="32.5" width="640" height="510" rx="15.5" stroke="url(#paint1_linear_8870_10133)"/>
<rect x="65" y="72" width="529.574" height="430.899" rx="10.6047" fill="#121C1E"/>
<path d="M78.9895 95.6248C78.9895 92.3479 81.2802 89.6437 84.7161 89.6437C88.0884 89.6437 90.4109 92.2207 90.4109 95.593C90.4109 98.8699 88.1361 101.574 84.7002 101.574C81.3597 101.574 78.9895 98.9812 78.9895 95.6248ZM80.9938 95.6089C80.9938 97.7723 82.3459 99.7925 84.7002 99.7925C87.0226 99.7925 88.4066 97.8359 88.4066 95.6089C88.4066 93.4296 87.0863 91.4253 84.7002 91.4253C82.3778 91.4253 80.9938 93.366 80.9938 95.6089ZM92.2811 92.9365H93.9513L94.0149 94.0818C94.524 93.1592 95.5261 92.6979 96.5601 92.6979C98.628 92.6979 99.646 94.3522 99.646 96.3088V101.256H97.8167V96.5156C97.8167 95.3862 97.3713 94.3522 96.0988 94.3522C94.9216 94.3522 94.1104 95.243 94.1104 96.4202V101.256H92.2811V92.9365ZM101.522 97.6927V96.0702H105.976V97.6927H101.522ZM107.599 95.6884C107.599 92.5388 109.747 89.6437 113.119 89.6437C115.235 89.6437 117.096 90.7572 117.844 92.8092L115.982 93.3342C115.442 92.1411 114.424 91.4253 113.103 91.4253C110.844 91.4253 109.604 93.5887 109.604 95.6725C109.604 97.7564 110.829 99.7925 113.135 99.7925C114.487 99.7925 115.505 99.0766 116.094 97.8836L117.955 98.4085C117.207 100.461 115.267 101.574 113.119 101.574C109.826 101.574 107.599 98.9494 107.599 95.6884ZM119.344 98.8858C119.344 97.0246 121.062 96.2293 122.732 96.2293C123.432 96.2293 124.116 96.3565 124.768 96.6269V96.102C124.768 95.0521 124.179 94.225 123.05 94.225C122.286 94.225 121.618 94.6545 121.332 95.3703L119.646 94.9885C120.059 93.4932 121.602 92.6979 123.082 92.6979C125.118 92.6979 126.581 94.0818 126.581 96.1816V101.256H124.911L124.848 100.158C124.323 101.081 123.305 101.495 122.286 101.495C120.759 101.495 119.344 100.54 119.344 98.8858ZM121.189 98.8062C121.189 99.6334 121.968 100.031 122.716 100.031C123.829 100.031 124.768 99.2516 124.768 98.0904V97.8995C124.498 97.7882 124.211 97.6927 123.925 97.6132C123.623 97.5496 123.32 97.5177 123.018 97.5177C122.223 97.5177 121.189 97.8359 121.189 98.8062ZM128.708 101.256V89.421H130.538V101.256H128.708ZM132.673 101.256V89.421H134.503V101.256H132.673ZM139.659 98.7108L141.488 98.2654C141.838 99.2516 142.602 99.7925 143.652 99.7925C144.654 99.7925 145.64 99.188 145.64 98.0904C145.64 97.0246 144.701 96.6747 143.827 96.4679L143.238 96.3406C141.504 95.9748 139.945 95.0362 139.945 93.0797C139.945 91.0117 141.695 89.7233 143.699 89.7233C145.433 89.7233 146.992 90.7095 147.437 92.4593L145.624 92.9047C145.29 91.998 144.638 91.4253 143.652 91.4253C142.777 91.4253 141.902 91.9662 141.902 92.9365C141.902 93.9705 142.936 94.3204 143.779 94.5113L144.367 94.6386C146.531 95.1317 147.612 96.2293 147.612 97.9313C147.612 100.142 145.783 101.495 143.636 101.495C141.854 101.495 140.152 100.508 139.659 98.7108ZM149.189 97.1519C149.189 94.7976 150.843 92.6979 153.341 92.6979C154.963 92.6979 156.427 93.5887 156.888 95.2112L155.154 95.6248C154.82 94.8613 154.168 94.3522 153.309 94.3522C151.845 94.3522 151.066 95.8157 151.066 97.136C151.066 98.4722 151.814 99.8402 153.309 99.8402C154.168 99.8402 154.9 99.3789 155.249 98.5835L156.967 98.9812C156.522 100.572 154.9 101.495 153.309 101.495C150.891 101.495 149.189 99.5539 149.189 97.1519ZM158.631 101.256V89.421H160.46V93.9386C161.017 93.1115 161.923 92.6979 162.91 92.6979C164.977 92.6979 165.996 94.3522 165.996 96.3088V101.256H164.166V96.5156C164.166 95.3862 163.721 94.3522 162.448 94.3522C161.271 94.3522 160.46 95.243 160.46 96.4202V101.256H158.631ZM167.76 97.0883C167.76 94.7658 169.382 92.6979 171.848 92.6979C174.314 92.6979 175.809 94.559 175.809 96.9928V97.5337H169.653C169.78 98.8221 170.591 99.9038 171.991 99.9038C172.866 99.9038 173.534 99.522 174.027 98.7426L175.634 99.363C174.998 100.795 173.518 101.495 171.991 101.495C169.494 101.495 167.76 99.6016 167.76 97.0883ZM171.848 94.1773C170.655 94.1773 169.923 95.1158 169.7 96.2293H173.9C173.725 95.1317 173.073 94.1773 171.848 94.1773ZM181.121 101.495C178.767 101.495 177.239 99.3948 177.239 97.136C177.239 94.8613 178.767 92.6979 181.216 92.6979C182.282 92.6979 183.236 93.1592 183.857 94.0341V89.421H185.686V101.256H184.016L183.936 99.9197C183.332 100.922 182.298 101.495 181.121 101.495ZM179.117 97.1042C179.117 98.4881 179.991 99.8402 181.503 99.8402C182.998 99.8402 183.889 98.5199 183.889 97.1042C183.889 95.6884 183.061 94.3522 181.503 94.3522C179.991 94.3522 179.117 95.6725 179.117 97.1042ZM187.815 97.5814V92.9365H189.644V97.6132C189.644 98.7744 190.185 99.8402 191.49 99.8402C192.794 99.8402 193.335 98.7744 193.335 97.6132V92.9365H195.164V97.5814C195.164 99.8084 193.86 101.495 191.474 101.495C189.167 101.495 187.815 99.872 187.815 97.5814ZM197.295 101.256V89.421H199.124V101.256H197.295ZM200.894 97.0883C200.894 94.7658 202.516 92.6979 204.982 92.6979C207.448 92.6979 208.943 94.559 208.943 96.9928V97.5337H202.787C202.914 98.8221 203.725 99.9038 205.125 99.9038C206 99.9038 206.668 99.522 207.161 98.7426L208.768 99.363C208.132 100.795 206.652 101.495 205.125 101.495C202.628 101.495 200.894 99.6016 200.894 97.0883ZM204.982 94.1773C203.789 94.1773 203.057 95.1158 202.835 96.2293H207.034C206.859 95.1317 206.207 94.1773 204.982 94.1773Z" fill="#F9FAFB"/>
<rect x="394.347" y="85.5873" width="101.012" height="31.1514" rx="4.97097" stroke="#E5E7EB" stroke-width="0.662796"/>
<path d="M410.646 97.5748H412.826C414.803 97.5748 416.315 98.7254 416.315 100.85C416.315 102.892 414.895 104.163 412.836 104.163H410.646V97.5748ZM411.425 103.449H412.808C414.367 103.449 415.517 102.53 415.517 100.869C415.517 99.2636 414.441 98.2893 412.808 98.2893H411.425V103.449ZM417.254 101.778C417.254 100.451 418.127 99.2451 419.546 99.2451C420.873 99.2451 421.745 100.294 421.745 101.611V101.917H418.025C418.099 102.845 418.618 103.643 419.648 103.643C420.233 103.643 420.706 103.393 421.022 102.892L421.653 103.179C421.263 103.922 420.493 104.302 419.667 104.302C418.229 104.302 417.254 103.217 417.254 101.778ZM419.546 99.8761C418.711 99.8761 418.192 100.563 418.062 101.342H420.966C420.892 100.563 420.4 99.8761 419.546 99.8761ZM424.957 104.302C423.575 104.302 422.656 103.161 422.656 101.806C422.656 100.47 423.566 99.2358 424.995 99.2358C425.858 99.2358 426.572 99.709 426.906 100.516L426.229 100.748C425.969 100.257 425.542 99.9132 424.967 99.9132C423.965 99.9132 423.417 100.878 423.417 101.797C423.417 102.446 423.705 103.217 424.345 103.486C424.531 103.578 424.735 103.625 424.957 103.625C425.523 103.625 426.043 103.319 426.284 102.799L426.962 103.031C426.637 103.848 425.82 104.302 424.957 104.302ZM427.75 101.778C427.75 100.451 428.622 99.2451 430.042 99.2451C431.369 99.2451 432.241 100.294 432.241 101.611V101.917H428.52C428.594 102.845 429.114 103.643 430.144 103.643C430.729 103.643 431.202 103.393 431.517 102.892L432.148 103.179C431.759 103.922 430.988 104.302 430.163 104.302C428.724 104.302 427.75 103.217 427.75 101.778ZM430.042 99.8761C429.207 99.8761 428.687 100.563 428.557 101.342H431.462C431.387 100.563 430.896 99.8761 430.042 99.8761ZM433.348 99.375H434.016L434.053 100.108C434.35 99.5327 434.897 99.2358 435.538 99.2358C436.261 99.2358 436.809 99.6255 437.069 100.294C437.338 99.6162 437.987 99.2358 438.711 99.2358C439.927 99.2358 440.456 100.182 440.456 101.324V104.163H439.713V101.37C439.713 100.618 439.463 99.9132 438.59 99.9132C437.82 99.9132 437.273 100.516 437.273 101.286V104.163H436.53V101.37C436.53 100.609 436.252 99.9132 435.389 99.9132C434.61 99.9132 434.09 100.516 434.09 101.286V104.163H433.348V99.375ZM441.767 97.2779H442.509V100.219C442.881 99.5791 443.502 99.2358 444.235 99.2358C445.609 99.2358 446.481 100.442 446.481 101.76C446.481 103.068 445.609 104.302 444.198 104.302C443.465 104.302 442.834 103.931 442.472 103.291L442.435 104.163H441.767V97.2779ZM444.105 99.9132C443.085 99.9132 442.491 100.804 442.491 101.769C442.491 102.242 442.621 102.743 442.955 103.096C443.243 103.439 443.66 103.625 444.105 103.625C445.126 103.625 445.72 102.743 445.72 101.769C445.72 101.277 445.59 100.813 445.265 100.433C444.95 100.099 444.569 99.9132 444.105 99.9132ZM447.39 101.778C447.39 100.451 448.262 99.2451 449.682 99.2451C451.009 99.2451 451.881 100.294 451.881 101.611V101.917H448.16C448.234 102.845 448.754 103.643 449.784 103.643C450.368 103.643 450.842 103.393 451.157 102.892L451.788 103.179C451.398 103.922 450.628 104.302 449.802 104.302C448.364 104.302 447.39 103.217 447.39 101.778ZM449.682 99.8761C448.847 99.8761 448.327 100.563 448.197 101.342H451.102C451.027 100.563 450.535 99.8761 449.682 99.8761ZM452.988 99.375H453.656L453.702 100.266C453.943 99.6719 454.407 99.31 455.057 99.31C455.159 99.31 455.261 99.3193 455.345 99.3286C455.428 99.3471 455.493 99.3657 455.558 99.3935L455.465 100.099C455.326 100.043 455.178 100.034 455.029 100.034C454.138 100.034 453.73 100.804 453.73 101.621V104.163H452.988V99.375Z" fill="#F9FAFB"/>
<path d="M467.852 99.1746L471.828 103.151L475.805 99.1746" stroke="#1F2937" stroke-width="0.664425" stroke-linecap="round" stroke-linejoin="round"/>
<rect x="503.972" y="85.5873" width="77.0121" height="31.1514" rx="4.97097" stroke="#E5E7EB" stroke-width="0.662796"/>
<path d="M520.029 99.3007C520.271 98.2986 521.087 97.6212 522.136 97.6212C523.231 97.6212 524.131 98.4007 524.131 99.542C524.131 100.563 523.37 101.416 522.683 102.084C522.182 102.548 521.672 103.003 521.152 103.449H524.242V104.163H520.029V103.532C521.013 102.715 522.089 101.815 522.878 100.813C523.147 100.461 523.351 100.071 523.351 99.6162C523.351 99.143 523.175 98.7347 522.767 98.4749C522.581 98.3728 522.368 98.3172 522.117 98.3172C521.393 98.3172 520.92 98.809 520.735 99.4771L520.029 99.3007ZM527.615 104.302C525.833 104.302 525.277 102.465 525.277 100.962C525.277 99.4678 525.815 97.6212 527.633 97.6212C529.434 97.6212 529.972 99.4399 529.972 100.962C529.972 102.446 529.424 104.302 527.615 104.302ZM526.056 100.962C526.056 101.973 526.307 103.606 527.624 103.606C528.951 103.606 529.192 101.992 529.192 100.962C529.192 99.9317 528.96 98.3172 527.624 98.3172C526.307 98.3172 526.056 99.9317 526.056 100.962ZM530.851 99.3007C531.092 98.2986 531.909 97.6212 532.958 97.6212C534.053 97.6212 534.953 98.4007 534.953 99.542C534.953 100.563 534.192 101.416 533.505 102.084C533.004 102.548 532.494 103.003 531.974 103.449H535.064V104.163H530.851V103.532C531.835 102.715 532.911 101.815 533.7 100.813C533.969 100.461 534.173 100.071 534.173 99.6162C534.173 99.143 533.997 98.7347 533.589 98.4749C533.403 98.3728 533.19 98.3172 532.939 98.3172C532.215 98.3172 531.742 98.809 531.556 99.4771L530.851 99.3007ZM538.214 104.302C537.175 104.302 536.302 103.69 535.996 102.678L536.711 102.511C536.924 103.179 537.509 103.606 538.214 103.606C539.021 103.606 539.624 103.003 539.624 102.177C539.624 101.351 539.049 100.776 538.205 100.776C537.787 100.776 537.277 100.98 536.998 101.286L536.377 101.203V97.7604H539.94V98.4749H537.091V100.526C537.407 100.229 537.824 100.08 538.335 100.08C539.522 100.08 540.404 100.962 540.404 102.177C540.404 103.393 539.43 104.302 538.214 104.302Z" fill="#F9FAFB"/>
<path d="M553.477 99.1746L557.453 103.151L561.43 99.1746" stroke="#1F2937" stroke-width="0.664425" stroke-linecap="round" stroke-linejoin="round"/>
<rect x="78.2578" y="130.989" width="65.6168" height="27.2559" rx="2.65119" fill="#06EEFD"/>
<path d="M95.3965 146.271L96.1296 146.039C96.3616 146.67 96.9183 147.06 97.5957 147.06C98.3195 147.06 98.9969 146.605 98.9969 145.817C98.9969 145.093 98.4216 144.787 97.7906 144.648L97.3823 144.555C96.4265 144.332 95.5636 143.831 95.5636 142.745C95.5636 141.623 96.4915 140.889 97.5864 140.889C98.5515 140.889 99.3866 141.418 99.6835 142.365L98.9505 142.597C98.7185 141.984 98.2545 141.585 97.5864 141.585C96.9369 141.585 96.3523 141.984 96.3523 142.69C96.3523 143.413 97.0297 143.683 97.6328 143.822L98.0411 143.915C99.0154 144.146 99.7856 144.685 99.7856 145.77C99.7856 146.995 98.802 147.756 97.605 147.756C96.6307 147.756 95.7213 147.236 95.3965 146.271ZM100.832 142.829H101.574V145.548C101.574 146.336 101.946 147.079 102.836 147.079C103.727 147.079 104.098 146.373 104.098 145.548V142.829H104.841V145.538C104.841 146.763 104.145 147.756 102.818 147.756C101.509 147.756 100.832 146.81 100.832 145.538V142.829ZM106.153 142.829H106.821L106.858 143.59C107.165 143.005 107.759 142.69 108.408 142.69C109.642 142.69 110.208 143.655 110.208 144.815V147.617H109.466V144.861C109.466 144.072 109.16 143.367 108.269 143.367C107.452 143.367 106.896 143.952 106.896 144.777V147.617H106.153V142.829ZM113.523 147.756C112.159 147.756 111.278 146.541 111.278 145.232C111.278 143.924 112.15 142.69 113.56 142.69C114.275 142.69 114.887 143.024 115.249 143.645V140.732H115.991V147.617H115.323L115.286 146.708C114.915 147.385 114.293 147.756 113.523 147.756ZM112.038 145.223C112.038 145.696 112.168 146.197 112.502 146.55C112.79 146.893 113.208 147.079 113.653 147.079C114.674 147.079 115.268 146.197 115.268 145.223C115.268 144.731 115.138 144.267 114.813 143.887C114.497 143.553 114.117 143.367 113.653 143.367C112.632 143.367 112.038 144.258 112.038 145.223ZM117.106 146.271C117.106 145.176 118.108 144.731 119.082 144.731C119.49 144.731 120.01 144.824 120.372 145V144.648C120.372 143.915 119.945 143.348 119.166 143.348C118.627 143.348 118.145 143.618 117.931 144.128L117.282 143.905C117.551 143.107 118.377 142.699 119.175 142.699C120.344 142.699 121.086 143.478 121.086 144.666V147.617H120.437L120.39 146.875C120.084 147.468 119.472 147.756 118.822 147.756C117.941 147.756 117.106 147.246 117.106 146.271ZM117.857 146.244C117.857 146.856 118.405 147.134 118.961 147.134C119.741 147.134 120.372 146.559 120.372 145.752V145.575C119.982 145.418 119.583 145.316 119.166 145.316C118.581 145.316 117.857 145.538 117.857 146.244ZM121.768 142.829H122.584L124.115 146.763L125.498 142.829H126.286L124.152 148.368C123.892 149.064 123.456 149.603 122.658 149.603C122.38 149.603 122.194 149.556 121.953 149.426L122.167 148.832C122.306 148.907 122.463 148.944 122.621 148.944C123.094 148.944 123.345 148.6 123.503 148.192L123.753 147.57L121.768 142.829Z" fill="#1C2026"/>
<rect x="151.164" y="130.989" width="65.6168" height="27.2559" rx="2.65119" fill="#06EEFD"/>
<path d="M167.193 141.029H167.926L170.338 145.446L172.76 141.029H173.465V147.617H172.704V142.476L170.635 146.244H170.023L167.953 142.476V147.617H167.193V141.029ZM177.01 147.756C175.6 147.756 174.644 146.615 174.644 145.223C174.644 143.859 175.59 142.69 177.029 142.69C178.448 142.69 179.395 143.812 179.395 145.223C179.395 146.596 178.458 147.756 177.01 147.756ZM175.405 145.223C175.405 145.696 175.535 146.197 175.869 146.55C176.156 146.893 176.574 147.079 177.019 147.079C178.04 147.079 178.634 146.197 178.634 145.223C178.634 144.731 178.504 144.267 178.179 143.887C177.864 143.553 177.483 143.367 177.019 143.367C175.999 143.367 175.405 144.258 175.405 145.223ZM180.495 142.829H181.164L181.201 143.59C181.507 143.005 182.101 142.69 182.75 142.69C183.984 142.69 184.55 143.655 184.55 144.815V147.617H183.808V144.861C183.808 144.072 183.502 143.367 182.611 143.367C181.795 143.367 181.238 143.952 181.238 144.777V147.617H180.495V142.829ZM187.865 147.756C186.501 147.756 185.62 146.541 185.62 145.232C185.62 143.924 186.492 142.69 187.902 142.69C188.617 142.69 189.229 143.024 189.591 143.645V140.732H190.334V147.617H189.666L189.628 146.708C189.257 147.385 188.636 147.756 187.865 147.756ZM186.381 145.223C186.381 145.696 186.511 146.197 186.845 146.55C187.132 146.893 187.55 147.079 187.995 147.079C189.016 147.079 189.61 146.197 189.61 145.223C189.61 144.731 189.48 144.267 189.155 143.887C188.84 143.553 188.459 143.367 187.995 143.367C186.975 143.367 186.381 144.258 186.381 145.223ZM191.448 146.271C191.448 145.176 192.45 144.731 193.424 144.731C193.833 144.731 194.352 144.824 194.714 145V144.648C194.714 143.915 194.287 143.348 193.508 143.348C192.97 143.348 192.487 143.618 192.274 144.128L191.624 143.905C191.893 143.107 192.719 142.699 193.517 142.699C194.686 142.699 195.429 143.478 195.429 144.666V147.617H194.779L194.733 146.875C194.426 147.468 193.814 147.756 193.164 147.756C192.283 147.756 191.448 147.246 191.448 146.271ZM192.199 146.244C192.199 146.856 192.747 147.134 193.304 147.134C194.083 147.134 194.714 146.559 194.714 145.752V145.575C194.324 145.418 193.925 145.316 193.508 145.316C192.923 145.316 192.199 145.538 192.199 146.244ZM196.11 142.829H196.926L198.457 146.763L199.84 142.829H200.629L198.495 148.368C198.235 149.064 197.799 149.603 197.001 149.603C196.722 149.603 196.537 149.556 196.295 149.426L196.509 148.832C196.648 148.907 196.806 148.944 196.963 148.944C197.437 148.944 197.687 148.6 197.845 148.192L198.096 147.57L196.11 142.829Z" fill="#1C2026"/>
<rect x="224.07" y="130.989" width="65.6168" height="27.2559" rx="2.65119" fill="#06EEFD"/>
<path d="M239.32 141.743V141.029H244.127V141.743H242.113V147.617H241.334V141.743H239.32ZM244.69 142.829H245.432V145.548C245.432 146.336 245.803 147.079 246.694 147.079C247.585 147.079 247.956 146.373 247.956 145.548V142.829H248.699V145.538C248.699 146.763 248.003 147.756 246.676 147.756C245.367 147.756 244.69 146.81 244.69 145.538V142.829ZM249.77 145.232C249.77 143.905 250.642 142.699 252.062 142.699C253.389 142.699 254.261 143.747 254.261 145.065V145.371H250.54C250.614 146.299 251.134 147.097 252.164 147.097C252.748 147.097 253.222 146.847 253.537 146.346L254.168 146.633C253.778 147.376 253.008 147.756 252.182 147.756C250.744 147.756 249.77 146.67 249.77 145.232ZM252.062 143.33C251.227 143.33 250.707 144.017 250.577 144.796H253.481C253.407 144.017 252.915 143.33 252.062 143.33ZM255.07 146.605L255.738 146.364C255.97 146.819 256.379 147.107 256.898 147.107C257.371 147.107 257.928 146.865 257.928 146.318C257.928 145.919 257.641 145.659 257.056 145.538L256.694 145.464C255.961 145.316 255.209 144.982 255.209 144.119C255.209 143.172 256.017 142.69 256.898 142.69C257.678 142.69 258.336 143.07 258.615 143.831L257.947 144.054C257.845 143.822 257.706 143.645 257.529 143.515C257.344 143.395 257.13 143.33 256.889 143.33C256.462 143.33 255.952 143.543 255.952 144.044C255.952 144.564 256.499 144.722 256.917 144.796L257.279 144.87C258.021 145.019 258.689 145.399 258.689 146.244C258.689 147.227 257.817 147.756 256.898 147.756C256.109 147.756 255.376 147.366 255.07 146.605ZM261.723 147.756C260.359 147.756 259.477 146.541 259.477 145.232C259.477 143.924 260.349 142.69 261.76 142.69C262.474 142.69 263.087 143.024 263.449 143.645V140.732H264.191V147.617H263.523L263.486 146.708C263.114 147.385 262.493 147.756 261.723 147.756ZM260.238 145.223C260.238 145.696 260.368 146.197 260.702 146.55C260.99 146.893 261.407 147.079 261.852 147.079C262.873 147.079 263.467 146.197 263.467 145.223C263.467 144.731 263.337 144.267 263.012 143.887C262.697 143.553 262.316 143.367 261.852 143.367C260.832 143.367 260.238 144.258 260.238 145.223ZM265.305 146.271C265.305 145.176 266.307 144.731 267.281 144.731C267.69 144.731 268.209 144.824 268.571 145V144.648C268.571 143.915 268.144 143.348 267.365 143.348C266.827 143.348 266.344 143.618 266.131 144.128L265.481 143.905C265.75 143.107 266.576 142.699 267.374 142.699C268.543 142.699 269.286 143.478 269.286 144.666V147.617H268.636L268.59 146.875C268.284 147.468 267.671 147.756 267.022 147.756C266.14 147.756 265.305 147.246 265.305 146.271ZM266.057 146.244C266.057 146.856 266.604 147.134 267.161 147.134C267.94 147.134 268.571 146.559 268.571 145.752V145.575C268.182 145.418 267.783 145.316 267.365 145.316C266.78 145.316 266.057 145.538 266.057 146.244ZM269.967 142.829H270.784L272.315 146.763L273.697 142.829H274.486L272.352 148.368C272.092 149.064 271.656 149.603 270.858 149.603C270.579 149.603 270.394 149.556 270.153 149.426L270.366 148.832C270.505 148.907 270.663 148.944 270.821 148.944C271.294 148.944 271.544 148.6 271.702 148.192L271.953 147.57L269.967 142.829Z" fill="#1C2026"/>
<rect x="296.984" y="130.989" width="65.6168" height="27.2559" rx="2.65119" fill="#06EEFD"/>
<path d="M304.605 141.029H305.449L306.999 146.615L308.576 141.029H309.374L310.97 146.615L312.52 141.029H313.327L311.35 147.617H310.552L308.966 142.012L307.388 147.617H306.581L304.605 141.029ZM313.606 145.232C313.606 143.905 314.478 142.699 315.898 142.699C317.225 142.699 318.097 143.747 318.097 145.065V145.371H314.376C314.45 146.299 314.97 147.097 316 147.097C316.585 147.097 317.058 146.847 317.373 146.346L318.004 146.633C317.615 147.376 316.844 147.756 316.019 147.756C314.58 147.756 313.606 146.67 313.606 145.232ZM315.898 143.33C315.063 143.33 314.543 144.017 314.413 144.796H317.318C317.243 144.017 316.752 143.33 315.898 143.33ZM321.253 147.756C319.889 147.756 319.008 146.541 319.008 145.232C319.008 143.924 319.88 142.69 321.291 142.69C322.005 142.69 322.617 143.024 322.979 143.645V140.732H323.722V147.617H323.054L323.016 146.708C322.645 147.385 322.024 147.756 321.253 147.756ZM319.769 145.223C319.769 145.696 319.899 146.197 320.233 146.55C320.52 146.893 320.938 147.079 321.383 147.079C322.404 147.079 322.998 146.197 322.998 145.223C322.998 144.731 322.868 144.267 322.543 143.887C322.228 143.553 321.847 143.367 321.383 143.367C320.363 143.367 319.769 144.258 319.769 145.223ZM325.068 142.829H325.736L325.773 143.59C326.079 143.005 326.673 142.69 327.323 142.69C328.557 142.69 329.123 143.655 329.123 144.815V147.617H328.38V144.861C328.38 144.072 328.074 143.367 327.183 143.367C326.367 143.367 325.81 143.952 325.81 144.777V147.617H325.068V142.829ZM330.192 145.232C330.192 143.905 331.064 142.699 332.484 142.699C333.811 142.699 334.683 143.747 334.683 145.065V145.371H330.962C331.037 146.299 331.556 147.097 332.586 147.097C333.171 147.097 333.644 146.847 333.96 146.346L334.59 146.633C334.201 147.376 333.431 147.756 332.605 147.756C331.166 147.756 330.192 146.67 330.192 145.232ZM332.484 143.33C331.649 143.33 331.129 144.017 330.999 144.796H333.904C333.83 144.017 333.338 143.33 332.484 143.33ZM335.493 146.605L336.161 146.364C336.393 146.819 336.801 147.107 337.321 147.107C337.794 147.107 338.351 146.865 338.351 146.318C338.351 145.919 338.063 145.659 337.478 145.538L337.116 145.464C336.383 145.316 335.632 144.982 335.632 144.119C335.632 143.172 336.439 142.69 337.321 142.69C338.1 142.69 338.759 143.07 339.037 143.831L338.369 144.054C338.267 143.822 338.128 143.645 337.952 143.515C337.766 143.395 337.553 143.33 337.311 143.33C336.884 143.33 336.374 143.543 336.374 144.044C336.374 144.564 336.922 144.722 337.339 144.796L337.701 144.87C338.443 145.019 339.111 145.399 339.111 146.244C339.111 147.227 338.239 147.756 337.321 147.756C336.532 147.756 335.799 147.366 335.493 146.605ZM342.145 147.756C340.781 147.756 339.899 146.541 339.899 145.232C339.899 143.924 340.772 142.69 342.182 142.69C342.897 142.69 343.509 143.024 343.871 143.645V140.732H344.613V147.617H343.945L343.908 146.708C343.537 147.385 342.915 147.756 342.145 147.756ZM340.66 145.223C340.66 145.696 340.79 146.197 341.124 146.55C341.412 146.893 341.829 147.079 342.275 147.079C343.296 147.079 343.889 146.197 343.889 145.223C343.889 144.731 343.76 144.267 343.435 143.887C343.119 143.553 342.739 143.367 342.275 143.367C341.254 143.367 340.66 144.258 340.66 145.223ZM345.727 146.271C345.727 145.176 346.73 144.731 347.704 144.731C348.112 144.731 348.632 144.824 348.994 145V144.648C348.994 143.915 348.567 143.348 347.787 143.348C347.249 143.348 346.767 143.618 346.553 144.128L345.904 143.905C346.173 143.107 346.999 142.699 347.797 142.699C348.966 142.699 349.708 143.478 349.708 144.666V147.617H349.059L349.012 146.875C348.706 147.468 348.094 147.756 347.444 147.756C346.562 147.756 345.727 147.246 345.727 146.271ZM346.479 146.244C346.479 146.856 347.026 147.134 347.583 147.134C348.363 147.134 348.994 146.559 348.994 145.752V145.575C348.604 145.418 348.205 145.316 347.787 145.316C347.203 145.316 346.479 145.538 346.479 146.244ZM350.389 142.829H351.206L352.737 146.763L354.12 142.829H354.908L352.774 148.368C352.514 149.064 352.078 149.603 351.28 149.603C351.002 149.603 350.816 149.556 350.575 149.426L350.788 148.832C350.928 148.907 351.085 148.944 351.243 148.944C351.716 148.944 351.967 148.6 352.125 148.192L352.375 147.57L350.389 142.829Z" fill="#1C2026"/>
<rect x="369.891" y="130.989" width="65.6168" height="27.2559" rx="2.65119" fill="#06EEFD"/>
<path d="M383.141 141.743V141.029H387.947V141.743H385.934V147.617H385.154V141.743H383.141ZM389.091 147.617V140.732H389.833V143.525C390.14 142.968 390.724 142.69 391.346 142.69C392.58 142.69 393.146 143.655 393.146 144.815V147.617H392.404V144.861C392.404 144.072 392.097 143.367 391.207 143.367C390.39 143.367 389.833 143.952 389.833 144.777V147.617H389.091ZM394.42 142.829H395.162V145.548C395.162 146.336 395.533 147.079 396.424 147.079C397.315 147.079 397.686 146.373 397.686 145.548V142.829H398.428V145.538C398.428 146.763 397.732 147.756 396.405 147.756C395.097 147.756 394.42 146.81 394.42 145.538V142.829ZM399.741 142.829H400.409L400.455 143.72C400.696 143.126 401.16 142.764 401.81 142.764C401.912 142.764 402.014 142.773 402.098 142.782C402.181 142.801 402.246 142.82 402.311 142.847L402.218 143.553C402.079 143.497 401.931 143.488 401.782 143.488C400.891 143.488 400.483 144.258 400.483 145.074V147.617H399.741V142.829ZM402.951 146.605L403.619 146.364C403.851 146.819 404.26 147.107 404.779 147.107C405.252 147.107 405.809 146.865 405.809 146.318C405.809 145.919 405.522 145.659 404.937 145.538L404.575 145.464C403.842 145.316 403.09 144.982 403.09 144.119C403.09 143.172 403.898 142.69 404.779 142.69C405.559 142.69 406.218 143.07 406.496 143.831L405.828 144.054C405.726 143.822 405.587 143.645 405.41 143.515C405.225 143.395 405.011 143.33 404.77 143.33C404.343 143.33 403.833 143.543 403.833 144.044C403.833 144.564 404.38 144.722 404.798 144.796L405.16 144.87C405.902 145.019 406.57 145.399 406.57 146.244C406.57 147.227 405.698 147.756 404.779 147.756C403.991 147.756 403.257 147.366 402.951 146.605ZM409.604 147.756C408.24 147.756 407.358 146.541 407.358 145.232C407.358 143.924 408.23 142.69 409.641 142.69C410.355 142.69 410.968 143.024 411.33 143.645V140.732H412.072V147.617H411.404L411.367 146.708C410.995 147.385 410.374 147.756 409.604 147.756ZM408.119 145.223C408.119 145.696 408.249 146.197 408.583 146.55C408.871 146.893 409.288 147.079 409.734 147.079C410.754 147.079 411.348 146.197 411.348 145.223C411.348 144.731 411.218 144.267 410.893 143.887C410.578 143.553 410.197 143.367 409.734 143.367C408.713 143.367 408.119 144.258 408.119 145.223ZM413.186 146.271C413.186 145.176 414.188 144.731 415.162 144.731C415.571 144.731 416.09 144.824 416.452 145V144.648C416.452 143.915 416.025 143.348 415.246 143.348C414.708 143.348 414.225 143.618 414.012 144.128L413.362 143.905C413.631 143.107 414.457 142.699 415.255 142.699C416.424 142.699 417.167 143.478 417.167 144.666V147.617H416.517L416.471 146.875C416.165 147.468 415.552 147.756 414.903 147.756C414.021 147.756 413.186 147.246 413.186 146.271ZM413.938 146.244C413.938 146.856 414.485 147.134 415.042 147.134C415.821 147.134 416.452 146.559 416.452 145.752V145.575C416.063 145.418 415.664 145.316 415.246 145.316C414.661 145.316 413.938 145.538 413.938 146.244ZM417.848 142.829H418.665L420.196 146.763L421.578 142.829H422.367L420.233 148.368C419.973 149.064 419.537 149.603 418.739 149.603C418.46 149.603 418.275 149.556 418.034 149.426L418.247 148.832C418.386 148.907 418.544 148.944 418.702 148.944C419.175 148.944 419.425 148.6 419.583 148.192L419.834 147.57L417.848 142.829Z" fill="#1C2026"/>
<rect x="442.797" y="130.989" width="65.6168" height="27.2559" rx="2.65119" fill="#06EEFD"/>
<path d="M462.825 141.029H466.537V141.743H463.605V144.007H466.268V144.722H463.605V147.617H462.825V141.029ZM467.618 142.829H468.286L468.333 143.72C468.574 143.126 469.038 142.764 469.688 142.764C469.79 142.764 469.892 142.773 469.975 142.782C470.059 142.801 470.124 142.82 470.189 142.847L470.096 143.553C469.957 143.497 469.808 143.488 469.66 143.488C468.769 143.488 468.361 144.258 468.361 145.074V147.617H467.618V142.829ZM471.887 147.617H471.144V142.829H471.887V147.617ZM471.516 141.938C471.246 141.938 471.005 141.697 471.005 141.428C471.005 141.149 471.237 140.917 471.516 140.917C471.803 140.917 472.026 141.131 472.026 141.428C472.026 141.706 471.794 141.938 471.516 141.938ZM475.234 147.756C473.87 147.756 472.988 146.541 472.988 145.232C472.988 143.924 473.861 142.69 475.271 142.69C475.986 142.69 476.598 143.024 476.96 143.645V140.732H477.702V147.617H477.034L476.997 146.708C476.626 147.385 476.004 147.756 475.234 147.756ZM473.749 145.223C473.749 145.696 473.879 146.197 474.213 146.55C474.501 146.893 474.918 147.079 475.364 147.079C476.385 147.079 476.978 146.197 476.978 145.223C476.978 144.731 476.849 144.267 476.524 143.887C476.208 143.553 475.828 143.367 475.364 143.367C474.343 143.367 473.749 144.258 473.749 145.223ZM478.816 146.271C478.816 145.176 479.819 144.731 480.793 144.731C481.201 144.731 481.721 144.824 482.083 145V144.648C482.083 143.915 481.656 143.348 480.876 143.348C480.338 143.348 479.856 143.618 479.642 144.128L478.993 143.905C479.262 143.107 480.088 142.699 480.886 142.699C482.055 142.699 482.797 143.478 482.797 144.666V147.617H482.148L482.101 146.875C481.795 147.468 481.183 147.756 480.533 147.756C479.651 147.756 478.816 147.246 478.816 146.271ZM479.568 146.244C479.568 146.856 480.115 147.134 480.672 147.134C481.452 147.134 482.083 146.559 482.083 145.752V145.575C481.693 145.418 481.294 145.316 480.876 145.316C480.292 145.316 479.568 145.538 479.568 146.244ZM483.478 142.829H484.295L485.826 146.763L487.209 142.829H487.997L485.863 148.368C485.603 149.064 485.167 149.603 484.369 149.603C484.091 149.603 483.905 149.556 483.664 149.426L483.877 148.832C484.017 148.907 484.174 148.944 484.332 148.944C484.805 148.944 485.056 148.6 485.214 148.192L485.464 147.57L483.478 142.829Z" fill="#1C2026"/>
<rect x="515.703" y="130.989" width="65.6168" height="27.2559" rx="2.65119" fill="#06EEFD"/>
<path d="M529.342 146.271L530.075 146.039C530.307 146.67 530.864 147.06 531.541 147.06C532.265 147.06 532.942 146.605 532.942 145.817C532.942 145.093 532.367 144.787 531.736 144.648L531.328 144.555C530.372 144.332 529.509 143.831 529.509 142.745C529.509 141.623 530.437 140.889 531.532 140.889C532.497 140.889 533.332 141.418 533.629 142.365L532.896 142.597C532.664 141.984 532.2 141.585 531.532 141.585C530.882 141.585 530.298 141.984 530.298 142.69C530.298 143.413 530.975 143.683 531.578 143.822L531.986 143.915C532.961 144.146 533.731 144.685 533.731 145.77C533.731 146.995 532.747 147.756 531.55 147.756C530.576 147.756 529.667 147.236 529.342 146.271ZM534.601 146.271C534.601 145.176 535.603 144.731 536.577 144.731C536.985 144.731 537.505 144.824 537.867 145V144.648C537.867 143.915 537.44 143.348 536.661 143.348C536.122 143.348 535.64 143.618 535.427 144.128L534.777 143.905C535.046 143.107 535.872 142.699 536.67 142.699C537.839 142.699 538.581 143.478 538.581 144.666V147.617H537.932L537.885 146.875C537.579 147.468 536.967 147.756 536.317 147.756C535.436 147.756 534.601 147.246 534.601 146.271ZM535.352 146.244C535.352 146.856 535.9 147.134 536.457 147.134C537.236 147.134 537.867 146.559 537.867 145.752V145.575C537.477 145.418 537.078 145.316 536.661 145.316C536.076 145.316 535.352 145.538 535.352 146.244ZM539.244 142.829H540.126V141.224H540.868V142.829H542.371V143.46H540.868V146.188C540.868 146.67 541.063 147.088 541.601 147.088C541.852 147.088 542.139 147.004 542.353 146.865L542.575 147.441C542.26 147.663 541.916 147.756 541.536 147.756C540.608 147.756 540.126 147.144 540.126 146.225V143.46H539.244V142.829ZM543.542 142.829H544.285V145.548C544.285 146.336 544.656 147.079 545.547 147.079C546.437 147.079 546.808 146.373 546.808 145.548V142.829H547.551V145.538C547.551 146.763 546.855 147.756 545.528 147.756C544.22 147.756 543.542 146.81 543.542 145.538V142.829ZM548.863 142.829H549.531L549.578 143.72C549.819 143.126 550.283 142.764 550.933 142.764C551.035 142.764 551.137 142.773 551.22 142.782C551.304 142.801 551.369 142.82 551.434 142.847L551.341 143.553C551.202 143.497 551.053 143.488 550.905 143.488C550.014 143.488 549.606 144.258 549.606 145.074V147.617H548.863V142.829ZM554.222 147.756C552.858 147.756 551.976 146.541 551.976 145.232C551.976 143.924 552.848 142.69 554.259 142.69C554.973 142.69 555.586 143.024 555.948 143.645V140.732H556.69V147.617H556.022L555.985 146.708C555.613 147.385 554.992 147.756 554.222 147.756ZM552.737 145.223C552.737 145.696 552.867 146.197 553.201 146.55C553.489 146.893 553.906 147.079 554.351 147.079C555.372 147.079 555.966 146.197 555.966 145.223C555.966 144.731 555.836 144.267 555.511 143.887C555.196 143.553 554.815 143.367 554.351 143.367C553.331 143.367 552.737 144.258 552.737 145.223ZM557.804 146.271C557.804 145.176 558.806 144.731 559.78 144.731C560.189 144.731 560.708 144.824 561.07 145V144.648C561.07 143.915 560.643 143.348 559.864 143.348C559.326 143.348 558.843 143.618 558.63 144.128L557.98 143.905C558.249 143.107 559.075 142.699 559.873 142.699C561.042 142.699 561.785 143.478 561.785 144.666V147.617H561.135L561.089 146.875C560.783 147.468 560.17 147.756 559.521 147.756C558.639 147.756 557.804 147.246 557.804 146.271ZM558.556 146.244C558.556 146.856 559.103 147.134 559.66 147.134C560.439 147.134 561.07 146.559 561.07 145.752V145.575C560.681 145.418 560.282 145.316 559.864 145.316C559.279 145.316 558.556 145.538 558.556 146.244ZM562.466 142.829H563.283L564.814 146.763L566.196 142.829H566.985L564.851 148.368C564.591 149.064 564.155 149.603 563.357 149.603C563.078 149.603 562.893 149.556 562.652 149.426L562.865 148.832C563.004 148.907 563.162 148.944 563.32 148.944C563.793 148.944 564.043 148.6 564.201 148.192L564.452 147.57L562.466 142.829Z" fill="#1C2026"/>
<rect x="78.2578" y="171.501" width="65.6168" height="53.0237" rx="2.65119" fill="#1C2026"/>
<path d="M111.104 188.129V182.571L109.582 183.424L109.276 182.812L111.243 181.726H111.865V188.129H111.104Z" fill="white"/>
<rect x="151.164" y="171.501" width="65.6168" height="53.0237" rx="2.65119" fill="#1C2026"/>
<path d="M181.451 183.266C181.693 182.264 182.509 181.587 183.558 181.587C184.653 181.587 185.553 182.366 185.553 183.508C185.553 184.528 184.792 185.382 184.105 186.05C183.604 186.514 183.094 186.969 182.574 187.414H185.664V188.129H181.451V187.498C182.435 186.681 183.511 185.781 184.3 184.779C184.569 184.426 184.773 184.037 184.773 183.582C184.773 183.109 184.597 182.7 184.189 182.441C184.003 182.339 183.79 182.283 183.539 182.283C182.815 182.283 182.342 182.775 182.156 183.443L181.451 183.266Z" fill="white"/>
<rect x="224.07" y="171.501" width="211.432" height="53.0237" rx="2.65119" fill="#1C2026"/>
<path d="M327.123 186.653L327.838 186.486C328.079 187.164 328.598 187.572 329.332 187.572C330.055 187.572 330.761 187.145 330.761 186.347C330.761 185.512 330.074 185.141 329.294 185.141H328.598V184.445H329.267C329.953 184.445 330.621 184.111 330.621 183.322C330.621 182.626 330.009 182.283 329.369 182.283C328.682 182.283 328.172 182.673 327.968 183.322L327.262 183.155C327.522 182.153 328.376 181.587 329.406 181.587C330.408 181.587 331.401 182.162 331.401 183.285C331.401 183.962 331.048 184.491 330.426 184.76C331.132 185.011 331.54 185.614 331.54 186.356C331.54 187.526 330.454 188.268 329.35 188.268C328.283 188.268 327.439 187.711 327.123 186.653Z" fill="white"/>
<path d="M252.965 208.757L255.591 202.168H256.798L259.433 208.757H258.264L257.642 207.124H254.71L254.088 208.757H252.965ZM256.176 203.31L255.081 206.158H257.271L256.176 203.31ZM260.234 208.757V201.853H261.301V208.757H260.234ZM263.568 208.757H262.501V203.904H263.568V208.757ZM262.473 202.874C262.408 202.772 262.38 202.67 262.38 202.549C262.38 202.428 262.408 202.326 262.473 202.224C262.529 202.122 262.603 202.048 262.705 201.983C262.807 201.927 262.909 201.899 263.03 201.899C263.15 201.899 263.252 201.927 263.354 201.983C263.456 202.048 263.531 202.122 263.596 202.224C263.651 202.326 263.679 202.428 263.679 202.549C263.679 202.67 263.651 202.772 263.596 202.874C263.531 202.976 263.456 203.05 263.354 203.106C263.252 203.171 263.15 203.198 263.03 203.198C262.909 203.198 262.807 203.171 262.705 203.106C262.603 203.05 262.529 202.976 262.473 202.874ZM264.554 206.363C264.554 204.989 265.519 203.764 266.976 203.764C267.922 203.764 268.776 204.284 269.045 205.231L268.033 205.472C267.839 205.026 267.458 204.73 266.957 204.73C266.103 204.73 265.649 205.583 265.649 206.353C265.649 207.133 266.085 207.931 266.957 207.931C267.458 207.931 267.885 207.662 268.089 207.198L269.091 207.43C268.831 208.358 267.885 208.896 266.957 208.896C265.547 208.896 264.554 207.764 264.554 206.363ZM269.765 206.326C269.765 204.971 270.712 203.764 272.15 203.764C273.588 203.764 274.461 204.85 274.461 206.27V206.585H270.87C270.944 207.337 271.417 207.968 272.234 207.968C272.744 207.968 273.134 207.745 273.421 207.291L274.359 207.652C273.987 208.488 273.124 208.896 272.234 208.896C270.777 208.896 269.765 207.792 269.765 206.326ZM272.15 204.627C271.454 204.627 271.027 205.175 270.897 205.824H273.347C273.245 205.184 272.865 204.627 272.15 204.627ZM277.327 207.996C277.327 207.643 277.661 207.383 278.005 207.383C278.181 207.383 278.348 207.439 278.497 207.541C278.831 207.81 278.96 208.191 278.96 208.608C278.96 209.48 278.385 210.102 277.569 210.362L277.346 209.74C277.801 209.582 278.218 209.239 278.218 208.729C278.218 208.645 278.209 208.571 278.19 208.506C278.107 208.571 278.014 208.599 277.912 208.599C277.81 208.599 277.708 208.571 277.624 208.515C277.531 208.469 277.457 208.395 277.411 208.302C277.355 208.209 277.327 208.107 277.327 207.996ZM281.937 202.168H284.22C285.278 202.168 286.326 202.642 286.326 203.867C286.326 204.498 286.048 204.98 285.482 205.268C286.206 205.518 286.605 206.14 286.605 206.892C286.605 208.2 285.454 208.757 284.266 208.757H281.937V202.168ZM283.032 207.792H284.22C284.86 207.792 285.463 207.523 285.463 206.799C285.463 206.056 284.879 205.797 284.22 205.797H283.032V207.792ZM283.032 204.878H284.118C284.702 204.878 285.194 204.655 285.194 204.006C285.194 203.365 284.684 203.133 284.118 203.133H283.032V204.878ZM287.423 206.326C287.423 204.971 288.369 203.764 289.808 203.764C291.246 203.764 292.118 204.85 292.118 206.27V206.585H288.527C288.601 207.337 289.075 207.968 289.891 207.968C290.402 207.968 290.791 207.745 291.079 207.291L292.016 207.652C291.645 208.488 290.782 208.896 289.891 208.896C288.434 208.896 287.423 207.792 287.423 206.326ZM289.808 204.627C289.112 204.627 288.685 205.175 288.555 205.824H291.005C290.903 205.184 290.522 204.627 289.808 204.627ZM293.074 203.904H294.049L294.086 204.572C294.383 204.034 294.967 203.764 295.571 203.764C296.777 203.764 297.371 204.73 297.371 205.871V208.757H296.304V205.991C296.304 205.333 296.044 204.73 295.301 204.73C294.615 204.73 294.142 205.249 294.142 205.936V208.757H293.074V203.904ZM298.456 207.996C298.456 207.643 298.79 207.383 299.133 207.383C299.309 207.383 299.476 207.439 299.625 207.541C299.959 207.81 300.089 208.191 300.089 208.608C300.089 209.48 299.513 210.102 298.697 210.362L298.474 209.74C298.929 209.582 299.346 209.239 299.346 208.729C299.346 208.645 299.337 208.571 299.318 208.506C299.235 208.571 299.142 208.599 299.04 208.599C298.938 208.599 298.836 208.571 298.752 208.515C298.66 208.469 298.585 208.395 298.539 208.302C298.483 208.209 298.456 208.107 298.456 207.996ZM302.843 205.509C302.843 203.672 304.095 201.983 306.063 201.983C307.297 201.983 308.382 202.632 308.818 203.829L307.733 204.136C307.417 203.44 306.823 203.022 306.053 203.022C304.736 203.022 304.012 204.284 304.012 205.5C304.012 206.715 304.726 207.903 306.072 207.903C306.861 207.903 307.454 207.485 307.798 206.789L308.883 207.096C308.447 208.293 307.315 208.942 306.063 208.942C304.142 208.942 302.843 207.411 302.843 205.509ZM309.843 208.757V201.853H310.91V208.757H309.843ZM311.877 207.374C311.877 206.288 312.88 205.824 313.854 205.824C314.262 205.824 314.661 205.899 315.042 206.056V205.75C315.042 205.138 314.698 204.655 314.039 204.655C313.594 204.655 313.204 204.906 313.037 205.323L312.054 205.101C312.295 204.228 313.195 203.764 314.058 203.764C315.246 203.764 316.099 204.572 316.099 205.797V208.757H315.125L315.088 208.116C314.782 208.655 314.188 208.896 313.594 208.896C312.703 208.896 311.877 208.339 311.877 207.374ZM312.954 207.328C312.954 207.81 313.408 208.042 313.845 208.042C314.494 208.042 315.042 207.587 315.042 206.91V206.799C314.884 206.734 314.717 206.678 314.55 206.632C314.373 206.595 314.197 206.576 314.021 206.576C313.557 206.576 312.954 206.762 312.954 207.328ZM317.294 203.904H318.268L318.314 204.702C318.556 204.163 319.01 203.839 319.604 203.839C319.771 203.839 319.948 203.857 320.105 203.922L319.985 204.961C319.845 204.906 319.697 204.897 319.549 204.897C318.713 204.897 318.361 205.537 318.361 206.298V208.757H317.294V203.904ZM320.588 207.374C320.588 206.288 321.59 205.824 322.564 205.824C322.973 205.824 323.372 205.899 323.752 206.056V205.75C323.752 205.138 323.409 204.655 322.75 204.655C322.304 204.655 321.915 204.906 321.748 205.323L320.764 205.101C321.005 204.228 321.905 203.764 322.768 203.764C323.956 203.764 324.81 204.572 324.81 205.797V208.757H323.836L323.798 208.116C323.492 208.655 322.898 208.896 322.304 208.896C321.414 208.896 320.588 208.339 320.588 207.374ZM321.664 207.328C321.664 207.81 322.119 208.042 322.555 208.042C323.205 208.042 323.752 207.587 323.752 206.91V206.799C323.594 206.734 323.427 206.678 323.26 206.632C323.084 206.595 322.908 206.576 322.731 206.576C322.267 206.576 321.664 206.762 321.664 207.328ZM329.427 210.065C328.416 208.831 327.878 207.356 327.878 205.75C327.878 204.145 328.416 202.67 329.427 201.435H330.476C329.464 202.679 328.861 204.136 328.861 205.75C328.861 207.356 329.474 208.831 330.476 210.065H329.427ZM333.148 208.896C332.063 208.896 331.126 208.302 330.847 207.207L331.849 207.012C332.053 207.606 332.499 207.94 333.13 207.94C333.742 207.94 334.318 207.597 334.318 206.919C334.318 206.223 333.733 205.927 333.093 205.927H332.406V204.98H333.046C333.622 204.98 334.178 204.692 334.178 204.043C334.178 203.468 333.696 203.171 333.158 203.171C332.582 203.171 332.128 203.523 331.97 204.071L330.968 203.876C331.2 202.818 332.146 202.215 333.204 202.215C334.253 202.215 335.264 202.79 335.264 203.959C335.264 204.618 334.911 205.129 334.318 205.398C335.004 205.639 335.413 206.214 335.413 206.947C335.413 208.172 334.299 208.896 333.148 208.896ZM335.882 209.787L338.926 201.714H339.91L336.866 209.787H335.882ZM341.998 208.757V203.532L340.606 204.312L340.226 203.412L342.165 202.354H343.075V208.757H341.998ZM344.491 203.978C344.742 202.92 345.577 202.215 346.69 202.215C347.86 202.215 348.778 203.022 348.778 204.238C348.778 204.507 348.732 204.767 348.63 205.017C348.212 206.038 346.969 207.096 346.143 207.782H348.89V208.757H344.528V207.94C345.466 207.17 346.421 206.372 347.192 205.435C347.461 205.082 347.683 204.72 347.683 204.266C347.683 203.885 347.535 203.523 347.201 203.319C347.043 203.236 346.867 203.189 346.663 203.189C346.041 203.189 345.67 203.616 345.512 204.182L344.491 203.978ZM349.551 209.787L352.594 201.714H353.578L350.534 209.787H349.551ZM353.972 203.978C354.222 202.92 355.058 202.215 356.171 202.215C357.34 202.215 358.259 203.022 358.259 204.238C358.259 204.507 358.213 204.767 358.11 205.017C357.693 206.038 356.449 207.096 355.624 207.782H358.37V208.757H354.009V207.94C354.946 207.17 355.902 206.372 356.672 205.435C356.941 205.082 357.164 204.72 357.164 204.266C357.164 203.885 357.016 203.523 356.681 203.319C356.524 203.236 356.347 203.189 356.143 203.189C355.522 203.189 355.15 203.616 354.993 204.182L353.972 203.978ZM361.464 208.896C360.425 208.896 359.469 208.283 359.209 207.235L360.23 207.059C360.434 207.606 360.879 207.94 361.464 207.94C362.141 207.94 362.661 207.458 362.661 206.762C362.661 206.075 362.16 205.611 361.473 205.611C361.093 205.611 360.703 205.759 360.434 206.029L359.562 205.936V202.354H363.282V203.347H360.582V205.008C360.87 204.776 361.241 204.655 361.677 204.655C362.856 204.655 363.756 205.537 363.756 206.743C363.756 208.005 362.716 208.896 361.464 208.896ZM366.535 206.678V205.732H369.134V206.678H366.535ZM372.187 208.896C371.148 208.896 370.192 208.283 369.932 207.235L370.953 207.059C371.157 207.606 371.602 207.94 372.187 207.94C372.864 207.94 373.384 207.458 373.384 206.762C373.384 206.075 372.883 205.611 372.196 205.611C371.816 205.611 371.426 205.759 371.157 206.029L370.285 205.936V202.354H374.006V203.347H371.305V205.008C371.593 204.776 371.964 204.655 372.4 204.655C373.579 204.655 374.479 205.537 374.479 206.743C374.479 208.005 373.44 208.896 372.187 208.896ZM374.903 209.787L377.946 201.714H378.93L375.886 209.787H374.903ZM381.019 208.757V203.532L379.627 204.312L379.246 203.412L381.186 202.354H382.095V208.757H381.019ZM383.512 203.978C383.762 202.92 384.597 202.215 385.711 202.215C386.88 202.215 387.799 203.022 387.799 204.238C387.799 204.507 387.752 204.767 387.65 205.017C387.232 206.038 385.989 207.096 385.163 207.782H387.91V208.757H383.549V207.94C384.486 207.17 385.442 206.372 386.212 205.435C386.481 205.082 386.704 204.72 386.704 204.266C386.704 203.885 386.555 203.523 386.221 203.319C386.063 203.236 385.887 203.189 385.683 203.189C385.061 203.189 384.69 203.616 384.532 204.182L383.512 203.978ZM388.571 209.787L391.615 201.714H392.598L389.555 209.787H388.571ZM392.992 203.978C393.243 202.92 394.078 202.215 395.191 202.215C396.361 202.215 397.279 203.022 397.279 204.238C397.279 204.507 397.233 204.767 397.131 205.017C396.713 206.038 395.47 207.096 394.644 207.782H397.391V208.757H393.029V207.94C393.967 207.17 394.922 206.372 395.692 205.435C395.962 205.082 396.184 204.72 396.184 204.266C396.184 203.885 396.036 203.523 395.702 203.319C395.544 203.236 395.368 203.189 395.164 203.189C394.542 203.189 394.171 203.616 394.013 204.182L392.992 203.978ZM400.484 208.896C399.445 208.896 398.489 208.283 398.229 207.235L399.25 207.059C399.454 207.606 399.899 207.94 400.484 207.94C401.161 207.94 401.681 207.458 401.681 206.762C401.681 206.075 401.18 205.611 400.493 205.611C400.113 205.611 399.723 205.759 399.454 206.029L398.582 205.936V202.354H402.303V203.347H399.603V205.008C399.89 204.776 400.261 204.655 400.697 204.655C401.876 204.655 402.776 205.537 402.776 206.743C402.776 208.005 401.737 208.896 400.484 208.896ZM404.304 210.065H403.255C404.258 208.831 404.87 207.356 404.87 205.75C404.87 204.136 404.267 202.679 403.255 201.435H404.304C405.315 202.67 405.854 204.145 405.854 205.75C405.854 207.356 405.315 208.831 404.304 210.065Z" fill="#06EEFD"/>
<rect x="442.797" y="171.501" width="65.6168" height="53.0237" rx="2.65119" fill="#1C2026"/>
<path d="M473.056 185.169C473.056 183.471 473.91 181.587 475.877 181.587C476.406 181.587 476.879 181.735 477.315 182.032L477.028 182.645C476.712 182.403 476.295 182.283 475.905 182.283C474.392 182.283 473.799 183.832 473.799 185.15C474.096 184.399 474.736 184.018 475.534 184.018C476.722 184.018 477.668 184.881 477.668 186.106C477.668 187.34 476.675 188.268 475.432 188.268C473.752 188.268 473.056 186.663 473.056 185.169ZM475.469 184.705C474.671 184.705 474.012 185.252 474.012 186.087C474.012 186.885 474.634 187.572 475.46 187.572C476.267 187.572 476.889 186.913 476.889 186.106C476.889 185.289 476.295 184.705 475.469 184.705Z" fill="white"/>
<rect x="515.703" y="171.501" width="65.6168" height="53.0237" rx="2.65119" fill="#1C2026"/>
<path d="M546.816 188.129L549.303 182.441H545.86V181.726H550.129V182.348L547.651 188.129H546.816Z" fill="white"/>
<rect x="78.2578" y="237.78" width="65.6168" height="53.0237" rx="2.65119" fill="#1C2026"/>
<path d="M110.763 254.548C109.649 254.548 108.499 253.944 108.499 252.682C108.499 251.884 108.953 251.3 109.696 251.049C109.092 250.78 108.712 250.27 108.712 249.602C108.712 248.498 109.761 247.867 110.781 247.867C111.783 247.867 112.823 248.479 112.823 249.593C112.823 250.251 112.452 250.78 111.848 251.04C112.591 251.291 113.036 251.857 113.036 252.655C113.036 253.889 111.904 254.548 110.763 254.548ZM110.772 251.42C110.03 251.42 109.278 251.782 109.278 252.636C109.278 253.462 110.02 253.852 110.772 253.852C111.505 253.852 112.257 253.471 112.257 252.636C112.257 251.801 111.542 251.42 110.772 251.42ZM110.772 248.563C110.132 248.563 109.482 248.934 109.482 249.648C109.482 250.335 110.132 250.725 110.772 250.725C111.403 250.725 112.053 250.353 112.053 249.648C112.053 249.444 111.997 249.258 111.895 249.091C111.626 248.711 111.217 248.563 110.772 248.563Z" fill="white"/>
<rect x="151.164" y="237.78" width="65.6168" height="53.0237" rx="2.65119" fill="#1C2026"/>
<path d="M183.428 252.07C182.259 252.07 181.284 251.235 181.284 250.01C181.284 248.776 182.286 247.867 183.521 247.867C185.237 247.867 185.896 249.555 185.896 251.059C185.896 252.785 185.07 254.548 183.084 254.548C182.528 254.548 182.036 254.399 181.618 254.102L181.906 253.49C182.231 253.731 182.62 253.852 183.057 253.852C184.625 253.852 185.154 252.432 185.154 251.059V250.966C184.857 251.69 184.198 252.07 183.428 252.07ZM182.064 250.001C182.064 250.799 182.685 251.383 183.493 251.383C184.272 251.383 184.94 250.827 184.94 250.01C184.94 249.203 184.319 248.563 183.493 248.563C182.704 248.563 182.064 249.194 182.064 250.001Z" fill="white"/>
<rect x="224.07" y="237.78" width="65.6168" height="53.0237" rx="2.65119" fill="#1C2026"/>
<path d="M253.916 254.408V248.85L252.395 249.704L252.088 249.091L254.056 248.006H254.677V254.408H253.916ZM258.566 254.548C256.784 254.548 256.227 252.71 256.227 251.207C256.227 249.713 256.765 247.867 258.584 247.867C260.384 247.867 260.923 249.685 260.923 251.207C260.923 252.692 260.375 254.548 258.566 254.548ZM257.007 251.207C257.007 252.219 257.257 253.852 258.575 253.852C259.902 253.852 260.143 252.237 260.143 251.207C260.143 250.177 259.911 248.563 258.575 248.563C257.257 248.563 257.007 250.177 257.007 251.207Z" fill="white"/>
<rect x="296.984" y="237.78" width="65.6168" height="53.0237" rx="2.65119" fill="#1C2026"/>
<path d="M327.83 254.408V248.85L326.309 249.704L326.002 249.091L327.97 248.006H328.591V254.408H327.83ZM331.728 254.408V248.85L330.206 249.704L329.9 249.091L331.867 248.006H332.489V254.408H331.728Z" fill="white"/>
<rect x="369.891" y="237.78" width="65.6168" height="53.0237" rx="2.65119" fill="#1C2026"/>
<path d="M399.737 254.408V248.85L398.215 249.704L397.909 249.091L399.876 248.006H400.498V254.408H399.737ZM402.075 249.546C402.317 248.544 403.133 247.867 404.182 247.867C405.277 247.867 406.177 248.646 406.177 249.787C406.177 250.808 405.416 251.662 404.729 252.33C404.228 252.794 403.718 253.248 403.198 253.694H406.288V254.408H402.075V253.777C403.059 252.961 404.135 252.061 404.924 251.059C405.193 250.706 405.397 250.316 405.397 249.862C405.397 249.388 405.221 248.98 404.813 248.72C404.627 248.618 404.414 248.563 404.163 248.563C403.439 248.563 402.966 249.054 402.781 249.722L402.075 249.546Z" fill="white"/>
<rect x="442.797" y="237.78" width="65.6168" height="53.0237" rx="2.65119" fill="#1C2026"/>
<path d="M472.643 254.408V248.85L471.121 249.704L470.815 249.091L472.782 248.006H473.404V254.408H472.643ZM474.833 252.933L475.548 252.766C475.789 253.443 476.309 253.852 477.042 253.852C477.765 253.852 478.471 253.425 478.471 252.627C478.471 251.792 477.784 251.42 477.005 251.42H476.309V250.725H476.977C477.663 250.725 478.331 250.391 478.331 249.602C478.331 248.906 477.719 248.563 477.079 248.563C476.392 248.563 475.882 248.952 475.678 249.602L474.972 249.435C475.232 248.433 476.086 247.867 477.116 247.867C478.118 247.867 479.111 248.442 479.111 249.565C479.111 250.242 478.758 250.771 478.137 251.04C478.842 251.291 479.25 251.894 479.25 252.636C479.25 253.805 478.164 254.548 477.06 254.548C475.993 254.548 475.149 253.991 474.833 252.933Z" fill="white"/>
<rect x="515.703" y="237.78" width="65.6168" height="53.0237" rx="2.65119" fill="#1C2026"/>
<path d="M545.549 254.408V248.85L544.027 249.704L543.721 249.091L545.688 248.006H546.31V254.408H545.549ZM547.758 252.896V252.302L550.802 248.006H551.562V252.246H552.388V252.896H551.562V254.408H550.829V252.896H547.758ZM548.575 252.246H550.829V249.064L548.575 252.246Z" fill="white"/>
<rect x="78.2578" y="304.06" width="65.6168" height="53.0237" rx="2.65119" fill="#1C2026"/>
<path d="M108.604 320.688V315.13L107.082 315.983L106.776 315.371L108.743 314.285H109.365V320.688H108.604ZM113.03 320.827C111.991 320.827 111.119 320.215 110.813 319.203L111.527 319.036C111.741 319.704 112.325 320.131 113.03 320.131C113.838 320.131 114.441 319.528 114.441 318.702C114.441 317.876 113.866 317.301 113.021 317.301C112.604 317.301 112.093 317.505 111.815 317.811L111.193 317.728V314.285H114.756V315H111.908V317.051C112.223 316.754 112.641 316.605 113.151 316.605C114.339 316.605 115.22 317.487 115.22 318.702C115.22 319.918 114.246 320.827 113.03 320.827Z" fill="white"/>
<rect x="151.164" y="304.06" width="138.524" height="53.0237" rx="2.65119" fill="#1C2026"/>
<path d="M217.471 320.688V315.13L215.949 315.983L215.643 315.371L217.61 314.285H218.232V320.688H217.471ZM219.782 317.728C219.782 316.03 220.636 314.146 222.603 314.146C223.132 314.146 223.605 314.295 224.041 314.592L223.753 315.204C223.438 314.963 223.02 314.842 222.631 314.842C221.118 314.842 220.524 316.392 220.524 317.709C220.821 316.958 221.461 316.577 222.26 316.577C223.447 316.577 224.394 317.44 224.394 318.665C224.394 319.899 223.401 320.827 222.157 320.827C220.478 320.827 219.782 319.222 219.782 317.728ZM222.195 317.264C221.397 317.264 220.738 317.811 220.738 318.647C220.738 319.445 221.359 320.131 222.185 320.131C222.993 320.131 223.614 319.472 223.614 318.665C223.614 317.849 223.02 317.264 222.195 317.264Z" fill="white"/>
<path d="M174.447 338.665L177.1 332.077H177.926L180.58 338.665H179.745L179.012 336.79H175.987L175.254 338.665H174.447ZM177.499 332.939L176.265 336.076H178.724L177.499 332.939ZM181.49 338.665V331.78H182.232V338.665H181.49ZM184.317 338.665H183.575V333.877H184.317V338.665ZM183.946 332.986C183.677 332.986 183.436 332.745 183.436 332.476C183.436 332.197 183.668 331.965 183.946 331.965C184.234 331.965 184.456 332.179 184.456 332.476C184.456 332.754 184.224 332.986 183.946 332.986ZM187.72 338.804C186.338 338.804 185.419 337.663 185.419 336.308C185.419 334.972 186.328 333.738 187.757 333.738C188.62 333.738 189.335 334.211 189.669 335.018L188.991 335.25C188.732 334.758 188.305 334.415 187.729 334.415C186.727 334.415 186.18 335.38 186.18 336.299C186.18 336.948 186.468 337.718 187.108 337.987C187.293 338.08 187.497 338.127 187.72 338.127C188.286 338.127 188.806 337.82 189.047 337.301L189.724 337.533C189.4 338.349 188.583 338.804 187.72 338.804ZM190.513 336.28C190.513 334.953 191.385 333.747 192.805 333.747C194.132 333.747 195.004 334.795 195.004 336.113V336.419H191.283C191.357 337.347 191.877 338.145 192.907 338.145C193.491 338.145 193.965 337.895 194.28 337.393L194.911 337.681C194.521 338.423 193.751 338.804 192.925 338.804C191.487 338.804 190.513 337.718 190.513 336.28ZM192.805 334.378C191.97 334.378 191.45 335.064 191.32 335.844H194.224C194.15 335.064 193.658 334.378 192.805 334.378ZM196.148 340.335L195.943 339.88C196.38 339.667 196.751 339.305 196.751 338.785C196.751 338.646 196.723 338.526 196.677 338.423C196.612 338.498 196.519 338.535 196.407 338.535C196.287 338.535 196.175 338.488 196.092 338.396C195.999 338.303 195.953 338.191 195.953 338.062C195.953 337.774 196.222 337.579 196.491 337.579C197.057 337.579 197.317 338.229 197.317 338.711C197.317 339.472 196.834 340.047 196.148 340.335ZM200.473 332.077H202.654C204.63 332.077 206.143 333.227 206.143 335.352C206.143 337.393 204.723 338.665 202.663 338.665H200.473V332.077ZM201.253 337.95H202.635C204.194 337.95 205.345 337.032 205.345 335.371C205.345 333.765 204.268 332.791 202.635 332.791H201.253V337.95ZM207.091 337.319C207.091 336.224 208.093 335.779 209.068 335.779C209.476 335.779 209.995 335.872 210.357 336.048V335.695C210.357 334.962 209.93 334.396 209.151 334.396C208.613 334.396 208.13 334.665 207.917 335.176L207.267 334.953C207.536 334.155 208.362 333.747 209.16 333.747C210.329 333.747 211.072 334.526 211.072 335.714V338.665H210.422L210.376 337.922C210.07 338.516 209.457 338.804 208.808 338.804C207.926 338.804 207.091 338.294 207.091 337.319ZM207.843 337.291C207.843 337.904 208.39 338.182 208.947 338.182C209.726 338.182 210.357 337.607 210.357 336.8V336.623C209.968 336.466 209.569 336.364 209.151 336.364C208.566 336.364 207.843 336.586 207.843 337.291ZM211.753 333.877H212.57L214.026 337.867L215.483 333.877H216.272L214.398 338.665H213.627L211.753 333.877ZM217.881 338.665H217.139V333.877H217.881V338.665ZM217.51 332.986C217.241 332.986 217 332.745 217 332.476C217 332.197 217.232 331.965 217.51 331.965C217.798 331.965 218.021 332.179 218.021 332.476C218.021 332.754 217.789 332.986 217.51 332.986ZM221.229 338.804C219.865 338.804 218.983 337.588 218.983 336.28C218.983 334.972 219.855 333.738 221.266 333.738C221.98 333.738 222.593 334.072 222.955 334.693V331.78H223.697V338.665H223.029L222.992 337.755C222.62 338.433 221.999 338.804 221.229 338.804ZM219.744 336.271C219.744 336.744 219.874 337.245 220.208 337.598C220.496 337.941 220.913 338.127 221.358 338.127C222.379 338.127 222.973 337.245 222.973 336.271C222.973 335.779 222.843 335.315 222.518 334.935C222.203 334.6 221.822 334.415 221.358 334.415C220.338 334.415 219.744 335.306 219.744 336.271ZM230.597 339.917C229.557 338.73 229.001 337.236 229.001 335.658C229.001 334.081 229.557 332.587 230.597 331.399H231.376C230.309 332.596 229.696 334.044 229.696 335.658C229.696 337.273 230.309 338.72 231.376 339.917H230.597ZM232.9 338.665L235.387 332.977H231.944V332.262H236.213V332.884L233.735 338.665H232.9ZM236.19 339.639L239.196 331.678H239.892L236.886 339.639H236.19ZM242.099 338.665V333.107L240.577 333.96L240.271 333.348L242.238 332.262H242.86V338.665H242.099ZM244.438 333.802C244.679 332.8 245.495 332.123 246.544 332.123C247.639 332.123 248.539 332.902 248.539 334.044C248.539 335.064 247.778 335.918 247.091 336.586C246.59 337.05 246.08 337.505 245.56 337.95H248.65V338.665H244.438V338.034C245.421 337.217 246.498 336.317 247.286 335.315C247.555 334.962 247.759 334.573 247.759 334.118C247.759 333.645 247.583 333.236 247.175 332.977C246.989 332.875 246.776 332.819 246.525 332.819C245.802 332.819 245.328 333.311 245.143 333.979L244.438 333.802ZM249.432 339.639L252.439 331.678H253.135L250.128 339.639H249.432ZM253.674 333.802C253.915 332.8 254.731 332.123 255.78 332.123C256.875 332.123 257.775 332.902 257.775 334.044C257.775 335.064 257.014 335.918 256.327 336.586C255.826 337.05 255.316 337.505 254.796 337.95H257.886V338.665H253.674V338.034C254.657 337.217 255.734 336.317 256.522 335.315C256.791 334.962 256.996 334.573 256.996 334.118C256.996 333.645 256.819 333.236 256.411 332.977C256.225 332.875 256.012 332.819 255.761 332.819C255.038 332.819 254.564 333.311 254.379 333.979L253.674 333.802ZM261.036 338.804C259.997 338.804 259.125 338.191 258.819 337.18L259.533 337.013C259.747 337.681 260.331 338.108 261.036 338.108C261.844 338.108 262.447 337.505 262.447 336.679C262.447 335.853 261.871 335.278 261.027 335.278C260.61 335.278 260.099 335.482 259.821 335.788L259.199 335.705V332.262H262.762V332.977H259.914V335.027C260.229 334.73 260.647 334.582 261.157 334.582C262.345 334.582 263.226 335.463 263.226 336.679C263.226 337.895 262.252 338.804 261.036 338.804ZM264.561 339.917H263.781C264.848 338.72 265.461 337.273 265.461 335.658C265.461 334.044 264.848 332.596 263.781 331.399H264.561C265.628 332.615 266.157 334.044 266.157 335.658C266.157 337.264 265.618 338.711 264.561 339.917Z" fill="#06EEFD"/>
<rect x="296.984" y="304.06" width="65.6168" height="53.0237" rx="2.65119" fill="#1C2026"/>
<path d="M326.83 320.688V315.13L325.309 315.983L325.002 315.371L326.97 314.285H327.591V320.688H326.83ZM331.387 320.827C330.273 320.827 329.123 320.224 329.123 318.962C329.123 318.164 329.577 317.579 330.32 317.329C329.717 317.06 329.336 316.549 329.336 315.881C329.336 314.777 330.385 314.146 331.405 314.146C332.408 314.146 333.447 314.759 333.447 315.872C333.447 316.531 333.076 317.06 332.473 317.32C333.215 317.57 333.66 318.136 333.66 318.934C333.66 320.168 332.528 320.827 331.387 320.827ZM331.396 317.7C330.654 317.7 329.902 318.062 329.902 318.916C329.902 319.742 330.645 320.131 331.396 320.131C332.129 320.131 332.881 319.751 332.881 318.916C332.881 318.081 332.166 317.7 331.396 317.7ZM331.396 314.842C330.756 314.842 330.106 315.213 330.106 315.928C330.106 316.614 330.756 317.004 331.396 317.004C332.027 317.004 332.677 316.633 332.677 315.928C332.677 315.724 332.621 315.538 332.519 315.371C332.25 314.991 331.842 314.842 331.396 314.842Z" fill="white"/>
<rect x="369.891" y="304.06" width="65.6168" height="53.0237" rx="2.65119" fill="#1C2026"/>
<path d="M399.737 320.688V315.13L398.215 315.983L397.909 315.371L399.876 314.285H400.498V320.688H399.737ZM404.052 318.35C402.883 318.35 401.908 317.515 401.908 316.29C401.908 315.056 402.911 314.146 404.145 314.146C405.861 314.146 406.52 315.835 406.52 317.338C406.52 319.064 405.694 320.827 403.709 320.827C403.152 320.827 402.66 320.679 402.242 320.382L402.53 319.769C402.855 320.011 403.245 320.131 403.681 320.131C405.249 320.131 405.778 318.712 405.778 317.338V317.245C405.481 317.969 404.822 318.35 404.052 318.35ZM402.688 316.28C402.688 317.078 403.31 317.663 404.117 317.663C404.896 317.663 405.564 317.106 405.564 316.29C405.564 315.482 404.943 314.842 404.117 314.842C403.328 314.842 402.688 315.473 402.688 316.28Z" fill="white"/>
<rect x="442.797" y="304.06" width="65.6168" height="53.0237" rx="2.65119" fill="#1C2026"/>
<path d="M470.584 315.826C470.825 314.824 471.642 314.146 472.69 314.146C473.785 314.146 474.685 314.926 474.685 316.067C474.685 317.088 473.925 317.941 473.238 318.609C472.737 319.073 472.226 319.528 471.707 319.973H474.797V320.688H470.584V320.057C471.568 319.24 472.644 318.34 473.433 317.338C473.702 316.986 473.906 316.596 473.906 316.141C473.906 315.668 473.73 315.26 473.321 315C473.136 314.898 472.922 314.842 472.672 314.842C471.948 314.842 471.475 315.334 471.289 316.002L470.584 315.826ZM478.17 320.827C476.388 320.827 475.831 318.99 475.831 317.487C475.831 315.993 476.369 314.146 478.188 314.146C479.988 314.146 480.526 315.965 480.526 317.487C480.526 318.971 479.979 320.827 478.17 320.827ZM476.611 317.487C476.611 318.498 476.861 320.131 478.179 320.131C479.506 320.131 479.747 318.517 479.747 317.487C479.747 316.457 479.515 314.842 478.179 314.842C476.861 314.842 476.611 316.457 476.611 317.487Z" fill="white"/>
<rect x="515.703" y="304.06" width="65.6168" height="53.0237" rx="2.65119" fill="#1C2026"/>
<path d="M543.99 315.826C544.232 314.824 545.048 314.146 546.097 314.146C547.192 314.146 548.092 314.926 548.092 316.067C548.092 317.088 547.331 317.941 546.644 318.609C546.143 319.073 545.633 319.528 545.113 319.973H548.203V320.688H543.99V320.057C544.974 319.24 546.05 318.34 546.839 317.338C547.108 316.986 547.312 316.596 547.312 316.141C547.312 315.668 547.136 315.26 546.728 315C546.542 314.898 546.329 314.842 546.078 314.842C545.354 314.842 544.881 315.334 544.696 316.002L543.99 315.826ZM550.824 320.688V315.13L549.302 315.983L548.996 315.371L550.963 314.285H551.585V320.688H550.824Z" fill="white"/>
<rect x="78.2578" y="370.34" width="65.6168" height="53.0237" rx="2.65119" fill="#1C2026"/>
<path d="M106.045 382.105C106.286 381.103 107.103 380.426 108.151 380.426C109.246 380.426 110.146 381.205 110.146 382.347C110.146 383.367 109.386 384.221 108.699 384.889C108.198 385.353 107.687 385.808 107.168 386.253H110.258V386.968H106.045V386.337C107.029 385.52 108.105 384.62 108.894 383.618C109.163 383.265 109.367 382.876 109.367 382.421C109.367 381.948 109.191 381.539 108.782 381.28C108.597 381.177 108.383 381.122 108.133 381.122C107.409 381.122 106.936 381.614 106.75 382.282L106.045 382.105ZM111.338 382.105C111.579 381.103 112.396 380.426 113.444 380.426C114.539 380.426 115.44 381.205 115.44 382.347C115.44 383.367 114.679 384.221 113.992 384.889C113.491 385.353 112.981 385.808 112.461 386.253H115.551V386.968H111.338V386.337C112.322 385.52 113.398 384.62 114.187 383.618C114.456 383.265 114.66 382.876 114.66 382.421C114.66 381.948 114.484 381.539 114.075 381.28C113.89 381.177 113.676 381.122 113.426 381.122C112.702 381.122 112.229 381.614 112.043 382.282L111.338 382.105Z" fill="white"/>
<rect x="151.164" y="370.34" width="65.6168" height="53.0237" rx="2.65119" fill="#1C2026"/>
<path d="M178.951 382.105C179.193 381.103 180.009 380.426 181.058 380.426C182.153 380.426 183.053 381.205 183.053 382.347C183.053 383.367 182.292 384.221 181.605 384.889C181.104 385.353 180.594 385.808 180.074 386.253H183.164V386.968H178.951V386.337C179.935 385.52 181.011 384.62 181.8 383.618C182.069 383.265 182.273 382.876 182.273 382.421C182.273 381.948 182.097 381.539 181.689 381.28C181.503 381.177 181.29 381.122 181.039 381.122C180.315 381.122 179.842 381.614 179.656 382.282L178.951 382.105ZM184.096 385.492L184.81 385.325C185.052 386.003 185.571 386.411 186.304 386.411C187.028 386.411 187.733 385.984 187.733 385.186C187.733 384.351 187.047 383.98 186.267 383.98H185.571V383.284H186.239C186.926 383.284 187.594 382.95 187.594 382.161C187.594 381.465 186.982 381.122 186.341 381.122C185.655 381.122 185.144 381.512 184.94 382.161L184.235 381.994C184.495 380.992 185.349 380.426 186.379 380.426C187.381 380.426 188.374 381.001 188.374 382.124C188.374 382.801 188.021 383.33 187.399 383.599C188.104 383.85 188.513 384.453 188.513 385.195C188.513 386.365 187.427 387.107 186.323 387.107C185.256 387.107 184.411 386.55 184.096 385.492Z" fill="white"/>
<rect x="224.07" y="370.34" width="65.6168" height="53.0237" rx="2.65119" fill="#1C2026"/>
<path d="M251.858 382.105C252.099 381.103 252.915 380.426 253.964 380.426C255.059 380.426 255.959 381.205 255.959 382.347C255.959 383.367 255.198 384.221 254.511 384.889C254.01 385.353 253.5 385.808 252.98 386.253H256.07V386.968H251.858V386.337C252.841 385.52 253.917 384.62 254.706 383.618C254.975 383.265 255.179 382.876 255.179 382.421C255.179 381.948 255.003 381.539 254.595 381.28C254.409 381.177 254.196 381.122 253.945 381.122C253.222 381.122 252.748 381.614 252.563 382.282L251.858 382.105ZM256.867 385.455V384.861L259.91 380.565H260.671V384.806H261.497V385.455H260.671V386.968H259.938V385.455H256.867ZM257.683 384.806H259.938V381.623L257.683 384.806Z" fill="white"/>
<rect x="296.984" y="370.34" width="65.6168" height="53.0237" rx="2.65119" fill="#1C2026"/>
<path d="M324.772 382.105C325.013 381.103 325.829 380.426 326.878 380.426C327.973 380.426 328.873 381.205 328.873 382.347C328.873 383.367 328.112 384.221 327.425 384.889C326.924 385.353 326.414 385.808 325.894 386.253H328.984V386.968H324.772V386.337C325.755 385.52 326.832 384.62 327.62 383.618C327.889 383.265 328.094 382.876 328.094 382.421C328.094 381.948 327.917 381.539 327.509 381.28C327.323 381.177 327.11 381.122 326.859 381.122C326.136 381.122 325.662 381.614 325.477 382.282L324.772 382.105ZM332.134 387.107C331.095 387.107 330.223 386.494 329.917 385.483L330.631 385.316C330.845 385.984 331.429 386.411 332.134 386.411C332.942 386.411 333.545 385.808 333.545 384.982C333.545 384.156 332.969 383.581 332.125 383.581C331.708 383.581 331.197 383.785 330.919 384.091L330.297 384.008V380.565H333.86V381.28H331.012V383.33C331.327 383.033 331.745 382.885 332.255 382.885C333.443 382.885 334.324 383.766 334.324 384.982C334.324 386.197 333.35 387.107 332.134 387.107Z" fill="white"/>
<rect x="369.891" y="370.34" width="211.432" height="53.0237" rx="2.65119" fill="#1C2026"/>
<path d="M470.592 382.105C470.833 381.103 471.65 380.426 472.698 380.426C473.793 380.426 474.693 381.205 474.693 382.347C474.693 383.367 473.932 384.221 473.246 384.889C472.745 385.353 472.234 385.808 471.715 386.253H474.805V386.968H470.592V386.337C471.575 385.52 472.652 384.62 473.441 383.618C473.71 383.265 473.914 382.876 473.914 382.421C473.914 381.948 473.738 381.539 473.329 381.28C473.144 381.177 472.93 381.122 472.68 381.122C471.956 381.122 471.483 381.614 471.297 382.282L470.592 382.105ZM475.839 384.008C475.839 382.31 476.693 380.426 478.66 380.426C479.189 380.426 479.662 380.574 480.098 380.871L479.811 381.484C479.495 381.242 479.077 381.122 478.688 381.122C477.175 381.122 476.581 382.671 476.581 383.989C476.878 383.237 477.519 382.857 478.317 382.857C479.504 382.857 480.451 383.72 480.451 384.945C480.451 386.179 479.458 387.107 478.214 387.107C476.535 387.107 475.839 385.502 475.839 384.008ZM478.252 383.544C477.454 383.544 476.795 384.091 476.795 384.926C476.795 385.724 477.416 386.411 478.242 386.411C479.05 386.411 479.671 385.752 479.671 384.945C479.671 384.128 479.077 383.544 478.252 383.544Z" fill="white"/>
<path d="M402.536 404.348C402.536 402.511 403.789 400.822 405.756 400.822C406.99 400.822 408.076 401.471 408.512 402.668L407.426 402.975C407.111 402.279 406.517 401.861 405.747 401.861C404.429 401.861 403.705 403.123 403.705 404.339C403.705 405.554 404.42 406.742 405.765 406.742C406.554 406.742 407.148 406.324 407.491 405.628L408.577 405.935C408.141 407.132 407.009 407.781 405.756 407.781C403.835 407.781 402.536 406.25 402.536 404.348ZM409.536 407.596V400.692H410.603V407.596H409.536ZM411.571 406.213C411.571 405.127 412.573 404.663 413.547 404.663C413.956 404.663 414.355 404.738 414.735 404.895V404.589C414.735 403.977 414.392 403.494 413.733 403.494C413.288 403.494 412.898 403.745 412.731 404.162L411.747 403.94C411.988 403.067 412.889 402.603 413.752 402.603C414.939 402.603 415.793 403.411 415.793 404.636V407.596H414.819L414.782 406.955C414.475 407.494 413.881 407.735 413.288 407.735C412.397 407.735 411.571 407.178 411.571 406.213ZM412.647 406.167C412.647 406.649 413.102 406.881 413.538 406.881C414.188 406.881 414.735 406.426 414.735 405.749V405.638C414.577 405.573 414.41 405.517 414.243 405.471C414.067 405.434 413.891 405.415 413.714 405.415C413.25 405.415 412.647 405.601 412.647 406.167ZM416.987 402.743H417.962L418.008 403.541C418.249 403.002 418.704 402.678 419.298 402.678C419.465 402.678 419.641 402.696 419.799 402.761L419.678 403.8C419.539 403.745 419.391 403.735 419.242 403.735C418.407 403.735 418.054 404.376 418.054 405.137V407.596H416.987V402.743ZM420.281 406.213C420.281 405.127 421.284 404.663 422.258 404.663C422.666 404.663 423.065 404.738 423.446 404.895V404.589C423.446 403.977 423.102 403.494 422.443 403.494C421.998 403.494 421.608 403.745 421.441 404.162L420.458 403.94C420.699 403.067 421.599 402.603 422.462 402.603C423.65 402.603 424.503 403.411 424.503 404.636V407.596H423.529L423.492 406.955C423.186 407.494 422.592 407.735 421.998 407.735C421.107 407.735 420.281 407.178 420.281 406.213ZM421.358 406.167C421.358 406.649 421.812 406.881 422.249 406.881C422.898 406.881 423.446 406.426 423.446 405.749V405.638C423.288 405.573 423.121 405.517 422.954 405.471C422.777 405.434 422.601 405.415 422.425 405.415C421.961 405.415 421.358 405.601 421.358 406.167ZM427.432 401.007H428.638L429.993 406.092L431.385 401.007H432.48L433.881 406.092L435.226 401.007H436.405L434.456 407.596H433.306L431.923 402.585L430.54 407.596H429.381L427.432 401.007ZM438.33 407.596H437.263V402.743H438.33V407.596ZM437.235 401.713C437.17 401.611 437.142 401.508 437.142 401.388C437.142 401.267 437.17 401.165 437.235 401.063C437.29 400.961 437.365 400.887 437.467 400.822C437.569 400.766 437.671 400.738 437.791 400.738C437.912 400.738 438.014 400.766 438.116 400.822C438.218 400.887 438.293 400.961 438.358 401.063C438.413 401.165 438.441 401.267 438.441 401.388C438.441 401.508 438.413 401.611 438.358 401.713C438.293 401.815 438.218 401.889 438.116 401.945C438.014 402.01 437.912 402.037 437.791 402.037C437.671 402.037 437.569 402.01 437.467 401.945C437.365 401.889 437.29 401.815 437.235 401.713ZM439.529 407.596V400.692H440.596V407.596H439.529ZM441.489 406.436L442.454 406.185C442.621 406.621 443.002 406.853 443.466 406.853C443.837 406.853 444.292 406.677 444.292 406.241C444.292 405.823 443.846 405.675 443.503 405.619L443.197 405.563C442.408 405.424 441.629 405.044 441.629 404.134C441.629 403.132 442.501 402.603 443.438 402.603C444.282 402.603 445.043 403.04 445.285 403.884L444.329 404.116C444.171 403.708 443.865 403.476 443.429 403.476C443.085 403.476 442.677 403.652 442.677 404.051C442.677 404.45 443.206 404.571 443.512 404.626L443.818 404.682C444.607 404.812 445.359 405.248 445.359 406.139C445.359 407.178 444.431 407.735 443.457 407.735C442.594 407.735 441.758 407.299 441.489 406.436ZM446.069 405.164C446.069 403.726 447.08 402.603 448.574 402.603C450.022 402.603 451.042 403.708 451.042 405.164C451.042 406.603 450.031 407.735 448.537 407.735C447.099 407.735 446.069 406.612 446.069 405.164ZM448.556 403.568C447.674 403.568 447.164 404.329 447.164 405.164C447.164 405.972 447.674 406.77 448.556 406.77C449.437 406.77 449.947 405.99 449.947 405.164C449.947 404.339 449.456 403.568 448.556 403.568ZM452.028 402.743H453.003L453.04 403.411C453.337 402.872 453.921 402.603 454.524 402.603C455.731 402.603 456.325 403.568 456.325 404.71V407.596H455.258V404.83C455.258 404.172 454.998 403.568 454.255 403.568C453.569 403.568 453.095 404.088 453.095 404.775V407.596H452.028V402.743ZM460.944 408.904C459.932 407.67 459.394 406.194 459.394 404.589C459.394 402.984 459.932 401.508 460.944 400.274H461.992C460.981 401.518 460.378 402.975 460.378 404.589C460.378 406.194 460.99 407.67 461.992 408.904H460.944ZM462.494 402.817C462.744 401.759 463.579 401.054 464.693 401.054C465.862 401.054 466.781 401.861 466.781 403.077C466.781 403.346 466.734 403.606 466.632 403.856C466.215 404.877 464.971 405.935 464.145 406.621H466.892V407.596H462.531V406.779C463.468 406.009 464.424 405.211 465.194 404.274C465.463 403.921 465.686 403.559 465.686 403.104C465.686 402.724 465.537 402.362 465.203 402.158C465.046 402.074 464.869 402.028 464.665 402.028C464.043 402.028 463.672 402.455 463.514 403.021L462.494 402.817ZM467.833 404.608C467.833 402.854 468.789 401.054 470.774 401.054C471.312 401.054 471.795 401.184 472.25 401.481L471.925 402.371C471.582 402.149 471.201 402.047 470.793 402.047C469.512 402.047 469.021 403.16 468.909 404.301C469.262 403.735 469.828 403.485 470.487 403.485C471.656 403.485 472.621 404.339 472.621 405.554C472.621 406.816 471.591 407.735 470.329 407.735C468.612 407.735 467.833 406.167 467.833 404.608ZM470.329 404.394C469.661 404.394 469.132 404.868 469.132 405.563C469.132 406.232 469.633 406.788 470.32 406.788C470.997 406.788 471.526 406.259 471.526 405.573C471.526 404.886 471.025 404.394 470.329 404.394ZM472.937 408.626L475.98 400.553H476.964L473.92 408.626H472.937ZM479.053 407.596V402.371L477.661 403.151L477.28 402.251L479.22 401.193H480.129V407.596H479.053ZM481.546 402.817C481.796 401.759 482.631 401.054 483.745 401.054C484.914 401.054 485.833 401.861 485.833 403.077C485.833 403.346 485.786 403.606 485.684 403.856C485.267 404.877 484.023 405.935 483.197 406.621H485.944V407.596H481.583V406.779C482.52 406.009 483.476 405.211 484.246 404.274C484.515 403.921 484.738 403.559 484.738 403.104C484.738 402.724 484.589 402.362 484.255 402.158C484.097 402.074 483.921 402.028 483.717 402.028C483.095 402.028 482.724 402.455 482.566 403.021L481.546 402.817ZM486.605 408.626L489.649 400.553H490.632L487.589 408.626H486.605ZM491.026 402.817C491.277 401.759 492.112 401.054 493.226 401.054C494.395 401.054 495.313 401.861 495.313 403.077C495.313 403.346 495.267 403.606 495.165 403.856C494.747 404.877 493.504 405.935 492.678 406.621H495.425V407.596H491.064V406.779C492.001 406.009 492.956 405.211 493.727 404.274C493.996 403.921 494.218 403.559 494.218 403.104C494.218 402.724 494.07 402.362 493.736 402.158C493.578 402.074 493.402 402.028 493.198 402.028C492.576 402.028 492.205 402.455 492.047 403.021L491.026 402.817ZM498.518 407.735C497.479 407.735 496.523 407.122 496.263 406.074L497.284 405.897C497.488 406.445 497.934 406.779 498.518 406.779C499.196 406.779 499.715 406.297 499.715 405.601C499.715 404.914 499.214 404.45 498.527 404.45C498.147 404.45 497.757 404.598 497.488 404.868L496.616 404.775V401.193H500.337V402.186H497.637V403.847C497.924 403.615 498.296 403.494 498.732 403.494C499.91 403.494 500.81 404.376 500.81 405.582C500.81 406.844 499.771 407.735 498.518 407.735ZM503.59 405.517V404.571H506.188V405.517H503.59ZM506.88 402.817C507.13 401.759 507.965 401.054 509.079 401.054C510.248 401.054 511.167 401.861 511.167 403.077C511.167 403.346 511.12 403.606 511.018 403.856C510.601 404.877 509.357 405.935 508.531 406.621H511.278V407.596H506.917V406.779C507.854 406.009 508.81 405.211 509.58 404.274C509.849 403.921 510.072 403.559 510.072 403.104C510.072 402.724 509.923 402.362 509.589 402.158C509.431 402.074 509.255 402.028 509.051 402.028C508.429 402.028 508.058 402.455 507.9 403.021L506.88 402.817ZM514.556 407.735C513.415 407.735 512.209 407.132 512.209 405.833C512.209 405.099 512.626 404.506 513.313 404.246C512.756 403.977 512.413 403.466 512.413 402.845C512.413 401.685 513.498 401.054 514.575 401.054C515.623 401.054 516.709 401.648 516.709 402.826C516.709 403.457 516.384 403.949 515.827 404.237C516.523 404.478 516.922 405.062 516.922 405.795C516.922 407.095 515.753 407.735 514.556 407.735ZM514.565 404.738C513.944 404.738 513.303 405.053 513.303 405.768C513.303 406.464 513.925 406.798 514.565 406.798C515.196 406.798 515.827 406.482 515.827 405.768C515.827 405.062 515.206 404.738 514.565 404.738ZM514.565 401.991C514.027 401.991 513.48 402.306 513.48 402.91C513.48 403.503 514.009 403.828 514.565 403.828C515.113 403.828 515.651 403.513 515.651 402.91C515.651 402.316 515.122 401.991 514.565 401.991ZM517.404 408.626L520.448 400.553H521.431L518.388 408.626H517.404ZM523.52 407.596V402.371L522.128 403.151L521.748 402.251L523.687 401.193H524.597V407.596H523.52ZM526.013 402.817C526.264 401.759 527.099 401.054 528.212 401.054C529.381 401.054 530.3 401.861 530.3 403.077C530.3 403.346 530.254 403.606 530.152 403.856C529.734 404.877 528.491 405.935 527.665 406.621H530.411V407.596H526.05V406.779C526.987 406.009 527.943 405.211 528.713 404.274C528.982 403.921 529.205 403.559 529.205 403.104C529.205 402.724 529.057 402.362 528.723 402.158C528.565 402.074 528.389 402.028 528.184 402.028C527.563 402.028 527.192 402.455 527.034 403.021L526.013 402.817ZM531.073 408.626L534.116 400.553H535.1L532.056 408.626H531.073ZM535.494 402.817C535.744 401.759 536.579 401.054 537.693 401.054C538.862 401.054 539.781 401.861 539.781 403.077C539.781 403.346 539.734 403.606 539.632 403.856C539.215 404.877 537.971 405.935 537.146 406.621H539.892V407.596H535.531V406.779C536.468 406.009 537.424 405.211 538.194 404.274C538.463 403.921 538.686 403.559 538.686 403.104C538.686 402.724 538.537 402.362 538.203 402.158C538.046 402.074 537.869 402.028 537.665 402.028C537.043 402.028 536.672 402.455 536.515 403.021L535.494 402.817ZM542.986 407.735C541.946 407.735 540.991 407.122 540.731 406.074L541.752 405.897C541.956 406.445 542.401 406.779 542.986 406.779C543.663 406.779 544.183 406.297 544.183 405.601C544.183 404.914 543.682 404.45 542.995 404.45C542.614 404.45 542.225 404.598 541.956 404.868L541.083 404.775V401.193H544.804V402.186H542.104V403.847C542.392 403.615 542.763 403.494 543.199 403.494C544.378 403.494 545.278 404.376 545.278 405.582C545.278 406.844 544.238 407.735 542.986 407.735ZM546.806 408.904H545.757C546.759 407.67 547.372 406.194 547.372 404.589C547.372 402.975 546.768 401.518 545.757 400.274H546.806C547.817 401.508 548.355 402.984 548.355 404.589C548.355 406.194 547.817 407.67 546.806 408.904Z" fill="#06EEFD"/>
<rect x="78.2578" y="436.619" width="65.9956" height="53.0237" rx="2.65119" fill="#1C2026"/>
<path d="M106.24 448.385C106.482 447.383 107.298 446.705 108.347 446.705C109.442 446.705 110.342 447.485 110.342 448.626C110.342 449.647 109.581 450.501 108.894 451.169C108.393 451.633 107.883 452.087 107.363 452.533H110.453V453.247H106.24V452.616C107.224 451.8 108.3 450.9 109.089 449.897C109.358 449.545 109.562 449.155 109.562 448.7C109.562 448.227 109.386 447.819 108.978 447.559C108.792 447.457 108.579 447.401 108.328 447.401C107.604 447.401 107.131 447.893 106.946 448.561L106.24 448.385ZM113.492 450.909C112.323 450.909 111.348 450.074 111.348 448.849C111.348 447.615 112.35 446.705 113.585 446.705C115.301 446.705 115.96 448.394 115.96 449.897C115.96 451.623 115.134 453.386 113.148 453.386C112.592 453.386 112.1 453.238 111.682 452.941L111.97 452.329C112.295 452.57 112.684 452.691 113.121 452.691C114.689 452.691 115.218 451.271 115.218 449.897V449.805C114.921 450.528 114.262 450.909 113.492 450.909ZM112.128 448.84C112.128 449.638 112.749 450.222 113.557 450.222C114.336 450.222 115.004 449.666 115.004 448.849C115.004 448.042 114.383 447.401 113.557 447.401C112.768 447.401 112.128 448.032 112.128 448.84Z" fill="white"/>
<rect x="151.547" y="436.619" width="65.9956" height="53.0237" rx="2.65119" fill="#1C2026"/>
<path d="M179.381 451.772L180.095 451.605C180.337 452.282 180.856 452.691 181.589 452.691C182.313 452.691 183.018 452.264 183.018 451.466C183.018 450.631 182.332 450.259 181.552 450.259H180.856V449.563H181.524C182.211 449.563 182.879 449.229 182.879 448.441C182.879 447.745 182.267 447.401 181.626 447.401C180.94 447.401 180.429 447.791 180.225 448.441L179.52 448.274C179.78 447.271 180.634 446.705 181.664 446.705C182.666 446.705 183.659 447.281 183.659 448.404C183.659 449.081 183.306 449.61 182.684 449.879C183.39 450.129 183.798 450.733 183.798 451.475C183.798 452.644 182.712 453.386 181.608 453.386C180.541 453.386 179.696 452.83 179.381 451.772ZM187.115 453.386C185.333 453.386 184.777 451.549 184.777 450.046C184.777 448.552 185.315 446.705 187.133 446.705C188.934 446.705 189.472 448.524 189.472 450.046C189.472 451.531 188.924 453.386 187.115 453.386ZM185.556 450.046C185.556 451.057 185.807 452.691 187.124 452.691C188.451 452.691 188.692 451.076 188.692 450.046C188.692 449.016 188.46 447.401 187.124 447.401C185.807 447.401 185.556 449.016 185.556 450.046Z" fill="white"/>
<rect x="224.828" y="436.619" width="65.9956" height="53.0237" rx="2.65119" fill="#1C2026"/>
<path d="M253.162 451.772L253.877 451.605C254.118 452.282 254.638 452.691 255.371 452.691C256.094 452.691 256.8 452.264 256.8 451.466C256.8 450.631 256.113 450.259 255.333 450.259H254.638V449.563H255.306C255.992 449.563 256.66 449.229 256.66 448.441C256.66 447.745 256.048 447.401 255.408 447.401C254.721 447.401 254.211 447.791 254.007 448.441L253.301 448.274C253.561 447.271 254.415 446.705 255.445 446.705C256.447 446.705 257.44 447.281 257.44 448.404C257.44 449.081 257.087 449.61 256.466 449.879C257.171 450.129 257.579 450.733 257.579 451.475C257.579 452.644 256.493 453.386 255.389 453.386C254.322 453.386 253.478 452.83 253.162 451.772ZM260.145 453.247V447.689L258.623 448.543L258.317 447.93L260.284 446.845H260.905V453.247H260.145Z" fill="white"/>
</g>
<defs>
<linearGradient id="paint0_linear_8870_10133" x1="317" y1="0" x2="317" y2="587" gradientUnits="userSpaceOnUse">
<stop offset="0.0184502" stop-color="#0F0F0F"/>
<stop offset="1" stop-color="#023439"/>
</linearGradient>
<linearGradient id="paint1_linear_8870_10133" x1="359.5" y1="32" x2="359.5" y2="543" gradientUnits="userSpaceOnUse">
<stop stop-color="#5FDDEA"/>
<stop offset="1" stop-color="#03353B"/>
</linearGradient>
<clipPath id="clip0_8870_10133">
<rect width="634" height="587" rx="16" fill="white"/>
</clipPath>
</defs>
</svg>
